<mxfile host="65bd71144e">
    <diagram id="yXGR08absBNoWnCNYMvs" name="Current version">
        <mxGraphModel dx="4046" dy="2193" grid="1" gridSize="10" guides="1" tooltips="1" connect="1" arrows="1" fold="1" page="1" pageScale="1" pageWidth="1100" pageHeight="850" math="0" shadow="0">
            <root>
                <mxCell id="0"/>
                <mxCell id="1" parent="0"/>
                <mxCell id="3" value="Union injection v0" style="swimlane;whiteSpace=wrap;html=1;sketch=1;hachureGap=4;jiggle=2;curveFitting=1;fontFamily=Architects Daughter;fontSource=https%3A%2F%2Ffonts.googleapis.com%2Fcss%3Ffamily%3DArchitects%2BDaughter;fontSize=20;" parent="1" vertex="1">
                    <mxGeometry x="50" y="110" width="1440" height="1165" as="geometry"/>
                </mxCell>
                <mxCell id="4" value="" style="shape=image;verticalLabelPosition=bottom;labelBackgroundColor=default;verticalAlign=top;aspect=fixed;imageAspect=0;image=data:image/png,iVBORw0KGgoAAAANSUhEUgAAAUQAAAFfCAYAAAA2+7WeAAAAAXNSR0IArs4c6QAAAARnQU1BAACxjwv8YQUAAAAJcEhZcwAADsMAAA7DAcdvqGQAAI7HSURBVHhe7Z0JQFTX+fYfF3BBxUERXAZRcBk1EBWCggsGNaJEA3HLAtVSo6YRs2AWTP7BJppGMUbSRpOWtIltvmKTmBgRdzEx4IIiuOCGC6gFF1BgBGZcvvtc7tULgoKMCnp+7YSZe88958yAz7xn5jzvW8/R0fE6ytGqVStcuHBBeXRnzE9/jOv6J5RHAoFAcP+pl7UTVj+/qTy6FepaYWGh8qhiLCKIAoFAUNupiiDWV34KBALBI48QRIFAIFAQgigQCAQK4jNEgUBQq2nXrh30ej1atmyJ+vVvxnDXrl3DxYsXkZWVhTNnzihHK0d8higQCOo03bt3h7u7O+zs7MqIIeFjHud5trMEDZo1axap3L9B06ZNUVRUpDyqATbemPZ/YQgJCoJ/j3pYk3QOulbFKK5R16GIfM8WCb+cUB5Lw/QPweywaQga7Qsvx7PA07MxqUE8Em42EQgEdQxGhmWErmM3dLO+gAuXpWiva2/0crZFyf8ugHKi0+lw+fJlFBQUlLatAOqayWRSHlXMPY0QvV8Nhn5PJMJmTMf7//wN16dEIjKoHuop5y2CVziixjfFijnTpXFmYcHyo9LBWz4FEAgEdQwuk28w7CW8OWUi/N2k+14vYeooPZq6j0HwyNLTpEz7u+QuI0RvhL09HPlbU3BeOWLjNg2zxgO/7tCs5V2fQpBnO+QlJ+PghaEIf9kH3fQD0fHKJbhNngbfXn4IDemDM6utMWnpWxjhYoBfyHT4tV+BI13n4uPQPjCMCEVgu//B6cUPMNndGV4BnrC7koZ4JUIc/lIw7NbOQexh+SHMZjOcB43FwO694Nzvebzib4MV9mMQPaY3ega9gkDdOpgDl+C9Ecr5ofWwot5YLHl7BFwMfpg01Q+OPx5Bl3kfY2ofA/xDA9Eu1Qz/ea/Dq4sX3FolIPlI6VgCgeDe0atXL9Srp4RPx3bhtw690a9gG7Y1HIj+LXZh7eGO6N+jEX7dflJu0qhRI2RkZMj3K+IeRoiJiFlthd/PD4WB8+0eivdfBOK+Si49rZD1jzCE/WjGsD/FYO6LGYjanoPsbTOxcHUiYr9PRl5xDnJ1TnAfMwyOGUsxe3EUZq/LlK7UI3CgI3IOFqLwYDYcvSbBHWsRtiAakV+kQhsU61sAuceUBzcwIWvzPETPjUVG8x7w/XkZVmWYUJhrgl0XT+m8WTr/kXz+qM4D4cMckfHFbEQvmI11p6XTHQMxpHUODuQX4kCOI9yHt4GucQnyDsRg2Wp5AIFA8KDYvAzbz3lipN4al/P3KQctw10vmY1pSxH5LytM/iQa0b+3wr/nLEWqUTmpIW9LDGb/MRbm/hPgKz2W9b7jNERO0iM9LkaKHKXHTayB4lyeke9bw0665SJrRxKSdixH1M+SSpnMpefteP4myaekQHSEodwyXGp7Rbkr0fvtCAwuWofYrVkonWLZ8w2lDk3K8FbW0gNpDORnSWNL4/83Cp/+sByz3oxFbt8IRL3hXtpQIBDcU/gNcsV0g60UCLXqCFzYfnM3TOXtq06Nt93YdNDD+lQW8pTHWrxnRSO4nSQ/1jawOhOLWSmD8floYMPGY/AIcEdmWgEM/ZojcdIq6BdNgNWRDFg7GWBKC8a/EI3wx3OResIKDvnJONY9CO5npOjQ3gXNC2IR9kFC6SA20vL9z9PhXj8PRikaLjjyDda3CoHv1jBEbvZF5Ge+yMnWw6NxOrJaukN/VoryECSdnymdH4z3o32x7Wdg/DgrpJ+0hlNXE1J/9y9gUTg8clORYe2AwsM5cHnMGlklLnA4Ng+z/5FVOrZAILhn8EsVfoNcVVJTU2+7/aYq225q3T5E/YxohJ0Lw6z/KAfuK3qEfRaG7BmzsFw5IhAIHhz8lrlTp07Ko8o5fvw4Dh48qDyqmDokiIGIWDoENoVWcDQlISriG6QrZ+4LYyKwZKgNCq0cYdoahdn/uq+jCwSC23A/N2YLp4pAIHgkqIog3tN9iAKBQFCXqJEgtm3bVrknEAgEdR8RIQoEAoGCEESBQCBQqNGXKlwy/+9/1rAd8xzsbEqPFSbFoFD/HBzbmJD7awwu5SgbqjUYRobhRX9XNL8CZK4PQ9Qd3R820LUC8i5UsPO7MlrpoLuQV+H+SI8pH8L37EeI+knqb2Q4ooc5SUcLcHT9vxC92gXhbwDrcz0Q6mZXeoFE5vqZ0jxveamqiTSnVtKcqvh9FTN50GrEb9NoXK+rWFtbo1mzZsjNVXa/l6NNmzbyt4WqrYrfKhqNRly6dEl+fK/gN5YNGza8o51L8HBwn75UOYlLP/0ZuQ3boijhY5yzDkG3jkdwfM1RNHH3viWRg83E+XjD6xgWzghD2GvvYMkW5cTtGBKOOS/Tcld1QiPnIEi5X5YAPPNYWxiGB0PPybXXAwekuby7HCb/6ZjW0QFOzg5I/UekNL8fcKFBLn54naJdUzGUmDIHcyqeVIX4+vrCy8sL3t7eypGKoUezX79+sLW1lR/36NED/v7+8v07Ub4ttzbcabyqMHr0aHTu3Fm+36FDh9v2+dRTT8ltSO/evdG/f3/5fnXhnjU+HxXtHCrC2dlZfn0FtYserXWYN8gTnw3tj2e7OitHS9E1tsYnfv3wnMFFfmzftDGi/frjmS5l290tNUr/1bx58xuK29jdH1bH1qAw8xyKuwSi69DOKE5difycspFN6EsBOPmnz5AoB45mmM16jP/gY0wd4IKegS9hotMRFI36WJN8oQPsDI/D3bkrerVsBd+XwxH0pDvanW0D/7fGoLfbOLzyTHOsz+qHD+c9D/fOPnAb7IF+XbpC7+MM23aBmD7eAEOfXjAmpiBnzO8wxmoZkhoNRc9Da5DsMgL+WIP4bYXo4ecP3dEzsO0NxMenSPNzhq+/M06u0WFKdAAurElEzsi5iH62I7xC3kDQEy7o8mQwJvXJQVzj57Fk1igY+o9DsJcRxsFv4fV+LvB63B4JO5l5IgDhf/RG1w6D4NyiHQKnjoWhZx/0KkpESjZfi1KkiB2jRo2Ci4sLrKys5OiFkQw3ng4ZMkQWPkaL/Ml//G5ubrIQUkSYAik9PR19+vRBTk6O/LNv376wsbGRf7q6usrpkdT+uX/rscceQ2ZmJs6dOyePTxFW2165ckWO1AYNGiS369q1Kx5//HG579atW8tCymju7NmzGDp0qHwdz/E52Nvby0b7gIAAODk5yUk3aNTnNTxPIz7nzHGaNGki7yPz8fFBt27d5L8rRpMcc8CAAfLfI49RVNme7/SDBw+W++M8KKgODg5yMoAuXbrIf5MtWrSQ58Do2s/PT76eUSpfN74uFH6+tjx+4oTIE1ebyCs2YcPJM7gk/X76Otrj11M3/4E0adgAvdu0QusmjZGccx7e7R3Q3a4lMi4W4GDu7a179zC5w20wjIZjyUqkRSejydBn0Ug5rKKzKkDuZU201TEQA5psRtgH0Yh6bRUK3EbBSZOc4aiuLTLiM5BzOBaR/8iUNDQDq16LRExKHJatPgpTfi5MrXpgWogHLsa8iajFkVg6PwqJZ3OQ+FoU0uyayb7khK9ikCotvUMG2iEn2YzUY4Dnc32lCLYe9EOWYdnX0eifswJLqIO3sAJJF/UY9UQ9BHhZ48D/O146j/eiEP3eCuQ4D8drwwwwH8tC4aksoLMv+tlao+T8QcR8vUrpYxWituUgZ5sUbe7XoVkDI7I2xUjPQzktwV/YsGHDsGvXLqxZswZXr16VRZFLSv5Dpoj89ttvsgjyH/uxY8fkpSb/UVOIfv31V/ljDApMgwYN5P6WLy/13FAUExISyvRPUWBb7Q7/w4cPy30lJyfL4kKBaty4sdyWonzgwAFZIClOiYmJ8jUUHHUsCiudBadOnZJFi+3T0tLkdjwWFxcnixXbcE7x8fHyuSeeeEL+mIb2K17D8fh8//3vf8uRHAWc7SlejCZXrlwpz48izLmuX79e7v/IkSPym4I6B97fsGED2rdvL4s3X6sffvhBFlD2yY8lBLWLK9KbmG0jK/g5tcPubDWf1k0KTGbkSzevtm3Qo5UOpwur8VHaHbCYIJpOZqCIQrf/G2QV9UensR2RH/c9SpTzKhn5jnAfKomUChMpqIkbblA2+UIZrjGXjcTICEQMMmPddwnIkoLQhtZmFGoiLZXUheGYt8sOE+YvwHibifBokYvcrv3R/2omjM4BGCy1ydocjODfhWL6gnVK8odbWRWXjZZDZmBwiwzEMduQOg9JZKU4DtesTcjezWQUcVj6aQw+ezMcsbkeiJgfjlvcmClRCP8wGXbPRWHB+Jv5IfkPnpEURaX8OxkFh/94e/bsKQvW9evX5UiRURLFT4URVHZ2Nnbv3o3Tp09j0qRJchRVUlIi96Htn4LAtoyiykOR5OdrHTt2lIVQHY83zpNCygiO41Ng1bHoPaXgHTp0SJ4XIz1eo0ZqFFM1pRPnxOMUfc6N46jwcXFxsXyeP/k5JNszyuM5Ro7nz5/Hli1b5KiVy2MViinncPLkSTlC5RuICvvgc+ebDfsU1D64DH61by9syvwf1hw/pRwty97zuRjeqb0snpdKbv2e4m6xmCAWbYnGJTliPQfjhoU4/u1CnD1UugzTsvwfcWg4bgmWLIpG9KIliOgSi60YjiXvhSF80XDgt1gwAVgZjmXDynUUwsbwyw+FIiOsHTwQ9HIQXJoC2yTBMvzffITPjJTaATkXdfD4IARvz/4IoT10aFSch6u/8wB2zsMXXyzF0i+isO5sBwyr6kcP2/+FYx18gV3LIKd2aOqCCR+ES3MOQPO0OPx9bRb0L76IYYNG4cVRYxE6PwK+zjbApTzYz4xGpDQnnC6Aru9chLwTgY8md4eugQl50kukxsuqUHFZyWUghUKF/7j5mDdGbFpU4aAwUPwoZozs1CWjKpja/rlsZjRZ3v/JiJOCxc/yGLGxD0ZlHJdRKpe5jMLy8vJuCCNtVepYjOYoVBRBiiGX+RQvzplCRhHi0l4LRXr//v0YMWLEjc9B+Xwp2BQ6Xsu5E0bFnJ8qovzYgEt7PuacOA/Ok3Og6PFaiigjQ8Ln/Mwzz8jzVvsU1C76SZGfXZNGeLJjO/yuVxf8/rGu6OPQWjlbyqELl3D12nWkSMvm6xZMCG2Bb5n/pzx62PHAO9GB2Bs2W1r8lmbRSZgRCSXnTq2An6FRELk0vhPathQ/fq5HKHZHjzLreOnniYRtgoOD5eU6Bel2jBw5EikpKQ/076KyOfALFC6duWQW1A34meFkSRD/e+g4zl0uVo7eHVX5llkIYpUIQFj0cDjsWKIkfvBG+HxvJL4ZhdJP0R4+GG3yszqKIf+IGLHu3bu3Sib62orBYJA/O6zKG4bg4UMIokAgEChURRCFU0UgEAgUhCAKBAKBghBEgUAgULCAIHaE7Zi30en50pt9J3s0GRSGTmOnwdbh5raRMtgEIvyDUHgoDysicE40wr3KG//KMSUa0VOknyPDEX6jPqs7Qt8Ilf5L/zMN1oGI/CxcGovfDEfKha5uRW1bNbiNg3sCuYVEm8H3QaLOqTpw/g96YzJfP7EfUFBbsMC/5up5mYn+d77o3s4DgZoi0+VZ8X4YorZXcX9Reyfo26sbnHXo0FEP3ZBZiv95BSJnRKFsgdRy3GhbNbg5mltSaAHjfr/bUV1/rRa2ffbZZzF9+nRMnTpVdmVUhjqn6qD1GNPFwf153FMYEhKCKVOmyD9pu6sufH7cEF0VhJ9YUJ7fP9YNfxsxEF+NHIQ/D/ZEM+ubgdVD52VmIadJwR5I/WcOuvjZIn5zO0R++YHiT3bB5AUv4cknDejlMREjGjTGsDe0HmJ39H72yRv+5XW5ThiKeOl//rIfec1u9k//sRs6deog/WNT/M+hgUD8CTiPdMaJAy744zytj1iKKF8OuOGV9p4SWmFBekYy3GBMOxo3AfMxNxTT60t3iOqtZcTFjcEeHh6yY4LbV8r7a9VtLNyETCHjnkBucqYw0FVB1wcFim252ZieY2405uvNb8pUby7blZ8ToYOEm6RVrzEtcOybc2I0xnlrPcZ0lXCe9DlTvPfs2YO1a9fKNjo+J+7r47zokOFYbMMtLHSxqP5lnldfA27+5txpA+Sc1M3Z/Lvith3aBzkXCjIdMNw8zQ3h3JitPn9uNhc8mqScvYCfj2bCTvq7OH4xH6lnb2ZJeui8zPB6Ed1NB3HIlIZch8EI4Ur1hj9Zup+fKkd0pRbfH294iMf7NseB//dlGf9y5TFdPhK0/mctduV9xKmIudG2uNKC9BQ5ilFsbKwsToTiR7HTemvpO6ZYbd68WY62mPigvL+W9jb6b+k9pnBwIzSjKgrBjz/+iPz8/BttKXQUEwoIxVHrzWVCBe2cuGxm32yj9RozSlXnxIiW12k9xvxD4SZtChvFiX2xzeTJk+XnsHHjRtnVQeHmfFW3CB0i3HZFgda+BpyHCl83rSeZQkznDD3NfMPgja8jRVL7/AWPNh1bNJNuNvhFk9hB5aHyMvsO0+NKjhX6P9EB2Tl28HhekswbvmCJa1LUpdwlq1Zlo+XQGXC/koxlPcv6l29QII3SuDR9FJfMViisMA+iTCU+4lIqL0hP0WB+Pr7DUAhUaAHjOYqWahejX5Zt+A9fjdpUfy2jsU2bNt3w36oeYbalILF/tlPbMoLbunUrfv75Zzky03pzKV7aOXEMiibnoPUaM4rVzokiq/UYUyQpQvQ1czxeS9Fl3xRTjsnnSNT58npGuhybfWpfA/ahwuNaTzIjYV7Hm7ad9vmzreDRprdDK5y9XFSpO+Wh8TIPbZ+DH6LoJZZuf98Jq8cHoKwztxzb1yPPyRPGrd/AWM6/fIOf1yPbfR4+XxSNJV8GoVFKLFIr8j+TiVof8Th8uCgMBrVt2BwseMsXeilq5T94LVpvLZehKhQAig5Fhv/4tf/ICZehjKpUfy3FhFY5ihOvUeE5Ljm5zPX09LzRlm0YHXKJTbHTenO5/NTOiREWz/GzTbZVvcYUMS0UOq3HmNEdEytwPKbs4ljsk1EjhYo3Pgcme6gIjqV9DSi+jCz5OSSjP60ned++ffLjsWPHyv2raJ+/aiMUPLq46lpIS+DSBMHCy/wQUh2P7/30A1MMGUmqabjuNfwMk28GjIApvExDdq8zYwvqLsLLLHio4RcxjJYZdfJLG2a5EQjuB0IQBQKBQKEqgmj5b5kFAoGgjiIEUSAQCBSEIAoEAoGCEESBQCBQsIB1rxVsx0xHu74DoHtsAKwKD+G62x+g9+yN6xdSUWK8dZMtC9W/NvUFPDPGH086F2H9zrstAxmA8EWj4bA1EQfV7X9eofjwpT64kJCCHOXQPYPF8IuKUdXNAHSxcNM0N2vzZ22Ac+LeyerMh3sL2f5BPgdu3+H+yvJ7LAWCyqCuceP/7bCAIJ5CyaGtuN57HLDpPZxtOg29eh7CwVXnofNsD2MGS9TdhIXq/+S5H1+8tQjLVv+Cg/87j/z8u91fNBATfz8InZxOYM3W0tT2AVP+iCHt6mHfzwm419V2Q+fPhyE+XrEZ3pmgoCD5teXeP9ZCrgw6Tri5mh5mQhsdj1XlG322Zf1kWuHYBzdIly8kpYVz4j5Abq6uKrTqcfM1r+F43BROqyALUNGBQ4GlZbE6cOM3vcy0HVYFJrKg84Ub3wV1FyZreMvLHc907QjnFs2w++ztd7ew/bzBnrBr3Aj7zufJyR3+PMgTjRo2tIiX2WLbbmxDFqPJhleRne2KlkGhcHIGLqxbiNNpZd0q06IXw/zOq4gxaoadGIFol0JktvaEw/ZpiOsSjdA2WUgt0MNgm4vsYzlo7uaArS/HwWn+BOhO5MLOxYjYaTkI+swB2bBBGos/NQ3Bh7M74EpzayT8ZkJQuT6Dm2Qg1aiHp3UcQtLd8Kl0Pks5H90kEpFuOUjN18HdzoxlMxLg8VfNWNOlsb72QMmlDGyZEYVVI8MR8ztP4MxOJKQ5wLtLFjLyjFi/gPWfb0JXCj3A9DPT56uKHB0bLMnJTcq8zzZ0clBI+JOPmWSBnme6Snbu3CnXLia02dGRQmcKr1f7p/CxLX/SDcJSpHSj0LfMedAaR0se/c7aOW3btk32TvM8r6toTqxDwr7YjrDglFpVj1Y7Xst+VOi2oe2Pvmc6WPjmqVa6498N2/J5qK8BnysdOWoBKCaeoMhSXFlqlBu5uX+R2yb4GjKy5RzpAadHmqVQ+TwFdQufDg4YrG+LJSkHMLNvL/xj72GczC+UjjkiXRK4s8aywRIFke1I1M69GCS1C+jshHUnTuPHI7cPgaqy7cby2W70kySl34j93xbAYaIHjEnJ0C6sho0egKwfN+Fg71BEvvUSQsd7Im/xP5Fh7wKbpo5wbXUeaXCF7dq3MC/GHn4jLyHy/6KR3+tpeD7eAS42Z5B++jzMbXrBpSgLTQxGLEl3woRuvyBvWDAMO9fjWhdnnPi8fJ8G2G19Gx//0wi3IG9AOn/sxvnr0Ll2QOrMOfgq4QicB/ZBTrMu8NNrxrosjeV6Du+9Eg15K/GRRNgPHoSsme8hxS8IHldSsCLmW6RoXjZ6j+kC+e9//ysLAR9zmcnXjf+ImQ2GSz5uVuYvi8kRKAr0FDMhAhMdMOJiNMbiSBQeepoZ+VGMmCFG2z8z56iRG8WD5/jGRtcLLXkUKAoJRU07J0Z4FD3Oo7I5cZnMOVCwKJp8I2QbdW4UYWb9YXlTbrpmpEfBpqgyqw/nwYiO97kZm3OhmKnjcQ5cBvM6/v0x8mRyCr6jU8wZ6VKEeY7CSlFlOVPaE/k68fWoLR9DCKqOdf0GGNjBEU4tmsOxWVPsOXsefRxbo187BzjaNEV+iQl50k2FzpWerXUouXoNDevXh5u9HS5Lb6h0sdSqbDdVTe6w95xdaaH6lBhEvhaLjMtSFPV2BAYXrUPs1qxbC8VfM+NGHgcra5hykpG0Iwlxf49CzI7Sw1mfr0PhY5GY4JCFFXSgSdO4tU9zmeL3Zc/bQOqZLSSY+FX60aSCsa6WTTyhUqYYfr2b6SIofIyC+EugT1gLfzkUBLahgDFK4vJP9Q4TftZIXy+z4TAzDgWROQoZcfENS9s/xUZtSyiAixYtkgVjzJgxNwrEc1ztnFT/Mb3Mt5sTI1LtWNq5sR9eyyiWnm96lLVJKCh4nC/fPClcvJ7PRTsevcwqnDPhUp6iTwFke7ZhP7xP+KbBNpwTb4K6R8bFfMxJ3I0NJ08jr7gEl81Xsf9cHnKMl5F+XooQix7y5A6rPv4RJWPVQvUT4FI/FxeKreHoEYSZQVLEprSrkJT1yHIOxotDB2PUC6PQ/4Y6rUJcrg7YtRS7JDHkYrz4Dn2WPZ+JuLTmCFoUjvAPXoQLc5b9XG4sjZ6N/yAaYT0qLoZ/VmM053KRERkFiZ+vaWGERSGgIJVPmsDsNBQvepopAGzLaI9CweO8EW3/TJ6gtiVqcgU12w6jL0ZUPK+dE5ekapF4Cl5lc+J1jMqYsJZ986aOxzRi7IsJZhk1Ei61KaLsrzJ4rToeb4xIOWcfHx9Z4JjogZEuo0g+fvrpp+XlPtsSRrVq4ghVfAV1C6cWzfCqtAQOfawbjubl41SBEWcKL8v3j0t/j4Ums0ju8GAJxNzPXLB8RlSZzwIfBPx8jsvnqnzRUJ22luB+j8dokpEov0zh0pgRs+DhRyR3eEC4v7wA0zpLy+YWdsj8bzii1le0OBY8KPiZIv/e+Hf5yy+/3PEPWyAojxBEgUAgUKiKIAqnikAgECgIQRQIBAIFIYgCgUCgIARRIBAIFOp4cgeJ7gEImzkFY0c9jeF9muNsyn4Y3l6MSQ3WIEHttkcYol/riPiNd0hXf9tkDdK5VtK5O78sMnR2qBusuTGZtweNOqfqbGLmXkLuYXyQG59FIgeBJaCu3envuI4nd/BFxLwAFP7zPXy0bCWSWzyHd3/fGodKOkKfGX9TEM9tv7MYStw2WcOUj/GxYa1SDP/OcFMxNyfTK3ynJATcbMxN13SH0MLG5Amqpe12qG1pj6PPmJY+OjvYT0Woc6KlrqrQNkdfMR0otPnRxsdv67hpnOfoNLmbvYissEenS1XmQl80hVnrZhE8HIjkDpZM7hBvg2C39Qj9IEHpSI+wJbNgd8YGLm2ykXoUcOmah5g/5iHkMyDsBx2WjNUhI9cOLsZYvPyjCz5+vTvO7jeisFEhPPtWlqwhAOF/D4ZnvRzs3JwKh/6dkXUiD8YNUUqx+1KYkYYbhxnR0E1y4sQJ+RiTELD2MT2/27dvlwWGbyYUQSYkGDhwoPyLYvF2Oi/UUqZqMgj2Qbsa2/bt21d+s2KSBt5nW1rleI7tuXmZ4kFXChMo0CqnnROFjZY3/n7ZjuPt3btXjh7VOTGZAu1ydJ/Q6cI5MLkDq+TRu0whW7Vq1Y0tDPQlU7SY4IGuF4om3SQUZv4tUaRZ7J4iqL4GdLrwjYL3OX9aCzlH+pf5HJ588kn5POdP1wz7Zn/sQ33+bCeo29S25A6W/wzRMBqOJSuRFp2MJkOfBV1wWnRWBcil55nJHRYtwbKYSPj+vAyrMkwozDXBroskSjAi44dIREUkovB6BuZ9EoUfjjZCj+nDYDBlICs/C1lXXeD7eHOYLmaUdiyTBaOZQmtCxsrZiFo8GyvOO2H4gNKzgcMMMB/LQuGpLKCzL94I8cDFmDeldpFYOj8KiWdzkPhaFNLsmgHSGAlfqZlrViFqezayt81E1H4dmjUwImtTTBkxJEy5xYiHyQZUUaNNjpEbRYjJCWgxowAwYqRgUhz5pkL7G4WD5+gAobhRRJgmjOLGaylQzOrC0p0UN7ZlUgWKF614vIbXUlRY5J6RY/k5sQ2jREafTEPG5A08RpFT58SsOrzRDUIx5Fh88+M4FESKN5fe48ePl2+0/FHMmZGGiSMorpwvnxuz9VB4GVFqXwMtFDlGxDt27JAz3FDAKfC0JrIv3vjHzOeiPn+KpaDuk11YBJ30d/FCjy5o0chaivTqY1in9pJQOmKkJHSdbW+1fhaYzMiXbl5t26BHKx1OF1rORGExQXwgyR1iDwA9A2FQTsMmBN3qZ+GYJpGDjZU0N6VTK2sTsncnSdfHYemnMci2NqMwu/SclsqSNcikRCH8w2TYPReFBeOVYwoUCUYy5cNyCgH/UTMbDc8z2mOUQ1FiVKTCKJLiQlGicNCdwWw3TLLASI2Cxgw17J85D9mWIsq+fvrpJzm5Ar2/9PZSQIh2TuyDokWRpUhxCcGlNpeitMOpc+Lx8skUmMmGYstkCuyH4rl582b5uTHCVZNHEM6XIs+2bMexy78GWhhN8rmoHyvwNWFkyAhQm8hB+/zV44K6TW1L7mCx9F9XTm5HiTz3y1IUloSLe5NgvHDrkubwDjP6vxaBF/yG4KkRbmjXMAv78tqjl5M9DL0NaG1MkVN1OcufAfaBvz+kiCAFzoP84bxrDfL6PQ8vXWPo+xtg8200Njm9gFlTRmPIk09h9NPtcOybP+Nw59Hw6+8FF8Mz8LFLxdf/BDxHAktWX8W4572ksFsPb4MNPtlijd/NGA1DJx94OCbglN3z8H2yOR7zDsETtiY0tzUj+UxvvD69Hdakt8ZzQ55E88f6IaRvC5hs7GBOicOvmiidURajsvbt28uvjbpkPHPmjBzNqf+QGWmp//gpUGzHa5gai5/HsQ0jNAoPbxS1pKQkWQS5PGVbRp6MDnktEz+o46pLYYoKxY3n1XM8zqiL7SksTMrKObF/3tQ58fdPUeNnhkzWwGQTnBujPUabjCi5RGbUyD4phByLkSz75U9GvAaDQRZfRqIUOO1rwGUwI0XOjce4dOcymvPneDzOFGnslzce53Jeff4VvfEI6h5M7jDV3YD+7Ryw/3weEk/nyBFgC2srHLl4SRJJk5zcgX9j/5NEkt7m3g6t8UtWNvpKP7eeykYbG+nfk3RNrfoMsVbTMQwLpmZhVsQK5UDtg6JBoYqPZ/6y21OdtpaA4kQx4+eI9wP+4TI65EcN/Mzxfj1PQe1DJHewMB5TIxHi5oDM76YjarNyUFCr4bKfESNFkZ9jim+XBZZACKJAIBAoVEUQhVNFIBAIFIQgCgQCgYIQRIFAIFCo417mAIS/0RWJSYflR+6TwxFQzw5+L/BY1wqL2M+txUXsuc9O3W9XG1DnVJ1qdtxryPYPsgKeuuWIN4FApSrbbiwQIZ7EpZ/+jNyGbVGU8DHOWYegW8cjOL7mKJq4e6PctmbZy/zGgCz8KzwMYX98B9Era1K5xAFOzg7KfUDXXg99S/WY9LOdJ4bM8Cg9KREw0huubfXQlZ/UPSD0/UgEKferAm1x3N5Cp8bt4C+V38JyXyDhXkF6lKsC27IwPQs5vfTSS5g4caLcX2VwTtziUx04f/UabiynvZA/OSZv7PNuYBU/+qarAjeKc0+ooPZDK977Pn2wyK8fprp3v7G5vzLY/hOp7XMGF/kxvczRfv3xTBdn+XFNsXxd5sxzKO4SiK5DO6M4dSXyc8puzg59KQAn3/8U6+QgyFya2IFe5jG90TPoFQTq1sEcuBQfjOsDl4HBCA0aCC+DO56ZFojm683w//QtjOrpjXEh/WBcZZSiTSA+vtRDJ2/ezspBEwOPAf6DC5Hdwg228Ztw2CYEv/O9ipwGDXCihTdevzHeeqzvH4Vlob3h0mU0pr/oguT4znhl0Rj0dhuHV55pjvVXxuDTt0fAxeCHSVP94PjjEXSZ9zGm9jHAPzQQ7VKdMPkvL+HJJw1otCYRh0eG448+3eDk4wzbdoGYPt4AQ59eMCaWjUz5j5Z1jLnFhJu1uXmZrz0dHqyCxw3Q3AjNBA4UM25kphDSwsfNz9zEzb163KTMnxQfbl7mTzpLuGmadjf2eerUKbkNt7BwUzTrK3OjN39/tMqxb/bDjeLaOXF8epMZ8fF6ijG3w/CnOiduvuZGclrweA3tfozO6LzhJmt+u/ef//xHtt2xPCo3dfM58e+Hc6SIMlEEo0s+N3q3OYb2NeAmbW765kZzWgL5JsD+eYyvIx/TNsjnyn5ZkY+vgfb5C2offR1bQ9+iGRbuSMNQ5/Y4frEAl0pMspe56OoVGM2a2sES8sbsNq3QukljJOech3d7B3S3a4kM6bpaVZf5BvfTyzyktM/KycGy9OYY/KINPBgpSstnmTLjlUaQhWmLEbV4FhLQA8MRh2Wrj8KUnwtTqx6YNswRx754F9ELZmMdk7N0DMSQ1jk4kF+IAzmOcB8uHctPReSMKKziKm11FJJysivxRZfCX47Wm0sB4VKPy1TV20uBpHWPjhI6TGjT4z92Chf356n+YrpM2N/y5cvlvimKtP/RKRIbGyu7RtS27IebnadOnSoLI7dX0TNNYaEolZ8ThY6iycw6XM6rXmTtnOhTpihxLPWNlI4Sii8FnOLG88HBwXKpUgo5kzPQccJ+OV/6mCnCmzZtko8NHz68zGugwudJAaVfm7WkKeac49atW2X7H8WUryHFUvv8BbUT4WW2aKH6Aql/G+iV07omkrCVe5NgEXujG4vYZ2LF6tJj2vHUXUnma5qRR0YgYpAZ675LQJZ0uKG19PxyS09Z0XtsJ90kkeM8kv4bhU9/kE5I86zo11LGF60cIxQBrTdXC//RqwXc6R+mMFFUuJyg+Kmo/uLdu3fLUdSkSZNkRwkTMDDyokCwb16rtmVfFFQWsedxRmpcjnJMCqR2TvQY87haxF7rRdbOicki1LGYdIF2Qwogi9hTTDln2hcppoxAtUXsCedL2yAjY0Z2tA1SvLWvgQpfN8K2FGO2oxVQ67smnK/2+QtqJ6JQvUUL1cdhfbY75i2V+vprDIKs0hC7R2pX5rP0VViVawfsWoJk5Yi2SL0kzbdSZIS1gweCXg6CizShlLW5cJ/9IcJnL8AAe0m8UuKQ3MAb0wIGY1jQeAx3Va6TcJ+5GJFj6iHnUkVF7G+iig6XevxcjSKiws3uFAIKkjb5A6Hg8B89oyY12w2jIUZsPK4KJqM3RkrMgsPEC2pbwiUsP89TN6ryGl5PMdTOictktYg9BYvz4Y0CqIXCxAi0siL2jNqef/55eamsXk/B5nOsDL4+2teA0Sk/i+RcKNycI5ftlRWx59jq8+cyXFA7EYXq6zR6hH0WhuwZs1C6OH1wVMdffL+9yKKIvcBSCC9zbWTMO/hcWuYbrRxh2hqF2f+6P//QBVWDkSP/Fvk3K4rYCypDCKJAIBAoVEUQLf8ts0AgENRRhCAKBAKBghBEgUAgULCcILYbjTb9vdHAuh2a9A9By3al2x8EAoGgrmAxQWyEozi7qykc/zAW9bd/g+ttK/bXhn+yGNHyHkTpNicU7spxS2LTSifvZwycE41wr9Jjt4dJIgKU+1XBHaFS33wOC94LgfdtN0/eHnWudwM3SnM/H7edPAzw+ZTfdykQ3E8s42VuNRR2fgPg6NwcRUdz0eSJCWjucAklWYdwpbhstpvEtWsQ7zQCI869ipkLd5fx9loGX0R8PBHm+ASsSYhHYpVqsg/ExOeb3fBE3xkDxjzrgPiZb+G7ZuPx+nNNEbe5NONO9VDmuiYBd5Pvh5uTub+Q3l5uxK4M/j7pb+bmarpC6EGmP5lOkjvBtkyWwOp87INjqRu87wTte9wczU3WVYGuGc6PfmVupaHXmlZCtVh+VYr3C+oWD2Gh+mZo3tMKBXnusLf9DufSzYBnGNqej0Z2C380TY2/1dI2ZTEWQxJE6b/L+kr/AI5swX+K+mOUjSSPXQzIi4lFs9BgWB1LhVHvCeu4ECT0/hxBpnTkGo8hMtetTGH7yAszseAZGxw8kYem9R3Qs48jCg8mIOmKOzpvXYADT0ZggHRtpp07nA5ESeNOx9ePZyPtsA7urhmImGHGLBaynxEjT08/cS4ifMxIz7SDe7tURL2egcDPJ8DmYAbQVYpp98TA7OaLhBmRSPCKQMw4M3aaWqKZNH1D1zwseSUZAUul+R9X5x+MmBZSn155yJDE1CEtErP+kQX3yfMRPqJt6VxNHvCQn99pJDoMhvfWd7Dq8Y8QePgdzP7p5itIS5xarJ3uDVrYaJ9bv369vDFZLQRP9wpdG2xDqx39vhRNJnWgC4UWOf7+aKWjNY/XcVMzfczaYvAUQ45BfzGvJRRi9kuB4nzoST5y5IjsQOGbJO117IfX0lrHcqVsV9HcWECKrhsmZiC099G/zM3dFF76m1kUnz5o2vP4BsDnwTY8x/mzBjUL8NORQ9sfKxTSFcNzqk9bUDupbYXqLRAhnoSpqCNaDumDlroeaKjrAtu2zrDu3Bn1T2xGfm4FPtK+/vDHGul//hie8x5e+Ww/so7lw1bvgAa2PdCpYTKK2thh6+yP8c/LbgjsB+S26AOHzC1Y+m088g+fwFV7F9g0dYRrq+to16cLjr71Dr5MSMTW38xwG2SLuLcW4dJgfzhfdkA3530Ie/crKTptgAGTvXA+xxbuZ+fi3b/GQecfDJf4HDjeyJqjx6Sp3tg3Yza+SoxHg0GT4NVdj/aFX+PNT1Zgo5UH/GyO4VqXMfALDECQWxE2/fUD/HDUFp3aNIBN905o+EM6bJ+S5h8hzb/IHUH9WsGhZ29c238CuecboIe7HVZIY+XsUeb69iI0GhWoPL9VSPntKnynzsbAevF4b0kaq0zL8PdCHzATIVBwmAmGERNFgiKkChEFhstPFnun8PA62vqYOIHJFpg5hn8YtOt99913sqBRrNauXVumf/bBtrTf0XvMZAm04bE9LX3si2OuWLECPj4+8jwotBQuRnSM9ChctCVWNjf2y3MUWwoc97Wy9KkaKTJKpKeZfVAsmbSCzhva99gP3TeMdimodMbw9WCfPM/nxmw7gtqLdf0GGNjBEU4tmsOxWVPsOXsefRxbo187BzjaNEV+iQl50k2FzpWerXUouXoNDaW/CTd7O1yW3gTpYqk92W4KJQFLXIljP6ej4eO2yP/pI1w6dg65R+/8zlyaVEGPae+GQH8wDjGHlEW0tNLWTn35m+GIzfVAxPxwTC2TDMIG1lLLAiaWqAgbZma41fxtvlaZ4d9O7q/MFfxcq1jJ7tDEWjovkZ+KmN8FI/il2fimaBrmTNIjPS4GBy8o8ygzf84xF1lMBrFjOaKiSyMtLcvfmnXj+fFzVZM0SPlP0ygct0sIQYGoKPlCVRNCsA9t/xQoNSEE/crffvutbItT+2Z71VvNnxyHb6Q8r/0s8HZzu11iCEJBo0CvXLlSXlKXTwrBiJDj8rVRk0Hs2bPnxnOrag5FwYPhoU3uUAJXtBkIXPhqJa71H4v655OUM1XDDB1cB0xARD81d42WTgibHwFfZxvgUh7OlUkGkYnY3dYY9ZdIhM2KQKhXBnIadMaoGYFw4qUnY7EVw7HkvTCELxourcli5TRct8hnG2/ly55hyPkNGP5X9heN4fV+Q+yX65HbKxIfSv0v8HEsI9SlSL+QFq7wnhABb8eKElxmIm5PI3j/IRCDh47H+CcnYe6iMBjqSXOtL831lTDMufH8CtH99QDgu2AsMw1HxJibX7moQqUmX1ATGRAuGfmYt/LJF6qaEELbP3Mickl9u88LOSZFc/To0fKYaqF7FUZ4HIOiVtncbpcYgnA+zJSjXltZUgjOncfZjlGt+ty4LBfUXkRyhzqOfkY0ws6FYdZ/lAN1iNqcEELlfieGENRuRHKHWkkg3lkyBM2MVnA0JSEq4huIf64CQd1CCKJAIBAoVEUQhXVPIBAIFIQgCgQCgYIQRIFAIFCwsCBaobnnaNzc9SYQCAR1B8t+qeIahsdD3JEXOw0n91e8WdJ98vsIdWsl3StB7pEtWPH1KqQODkf0MHnXIHLT9qPQrWfpHkLCDdDvly3haVl8EfmZYsNTjtwOenO5d4774wQCQd3hPn+p0gOOozzQRIoS242cjiaV9Kxrb4fclTMR9to8rMrtj7APQ6FvL8nfgTDpWBgi//EFoqSfYQeA6wdmYuY9FcOqQbsaawETboju0KGDfF+FiQhYxL2qMOkBkyZUBe3YAsHDRguba5jyTD7eeOESnh1iRL2KfA0a2J5tR/QvdZrpWlzDrOCL8O1bsz2KKpbJdkMchsLRswtsrIBrV4HLpxJhvHhrlOg8yB/OWWuQcKIIZ/ZtR7vRL6BTNuCIeMTvVhoRxe+8z2cx3uu8Fuv36TFt0XsY4T0RU571gktXPwSH9EHOams8/9e3MKqnN8aF9INxb1f8cd5YGHr2Qa+iRKRIfesnL8DH4w0w9OkFY6ItgqOl9r1c4BcyCf1KjqJBNz1OxJfNOEMvLh0bTGrA+8z0wteFz5nvNCx5yQ3EtKjR9cGNxBRGWssYNbP0JTPEqNewZCY9txQ4OkboQ+Z9boCmnY73aU1jW9rOeC2TLPAcxZO+Yfp6OQ/a30StYcHDQHdnMxxbX8W/4pvhiZ4lOHO2IQqL6qNv9xIUm+qjuKSsQjayvo5uHc1o2fwa0o9bw83VBOd2V3BKuu7E/xoqrSqG/xbvtLKzXIR49SLyE2KQFhuDfQkHYCpfob5CjDAr2cEc+pXmF4ycXDZD4qmV6bD2CIZNx1Fwyd+CrVdMyFg5G1GLZ2PFeScMf20YDKYMZOVnIeuqC3yH6NCsgRFZm2IQo2TzsrNrJheWT/hKijbHDIM+ayneXRCN2R+lw+Gpx0sbaeALx6gsMTFRfswsMBQhZn+h/5ZZXviRwmOPPSZHe0xmwMwuFLIff/xRToJAy9i///1v2UZGexuFjllfaE1jAgRmh6GHlx5cZnyhoLJ/Jk6gsFJ0Y2Nj5YQIHJvXcF7Lly+XbWoCwcPAhUv10aLpNSnQKULzptdhZXUd/R4rgXtXEwa4F6O9/RWl5U2MkmBSNHu5mODS/grO5VruWwvLCeL5eFy46oeu40Kgt9mCi2eqEMF0nwZ3q0x5SZyzTV0yl1sgn1yGXSXdEPpcD5i2r5IOSFGn8hoxGjUxFUNOMpJ2JCHu71GI+W8Uwj9Mht1zUVgwvrRd6sJwzNtlhwnzF2B8E2vUUxM1VAJFimmrKHgUQKa/UtEmJqBvVk1EQD8whYvvQLxWm/SAUaQ2EYG2KD2P06PLLDNq4gI+5pjsi8kWSEpKikhYIHjoYGT3xY8tsHN/I1wy1keJqR4yshoiVxLK42eknwUVi13GKStJOItxVQqoCiRxtBSW60ni6s7PcGzTTziy8aRypCJs4DJ2MaL/KkVwMxyx+dMoJCtnKsaIb34zwadLNlas5mPp+glzET4rGgFNUhH35XpkOQfjxaGDMeqFUej/dAQ+mtwdugYm5J0bLydReGX2RwjtoUOj4jyc/U8cMrtFYP6sMMx904CsuO3yKFoYgTExgSqMjOQogFyuamEGFzURAaNELnG5zGZ7bdKD8hEdkyAw+QCXyaR84gImM1CvZ1oujs1+RcICwcOGY6ureP6pQowZbMSpHCmokKK9cxcbICunIU6fa4ii4noYPcgIg7S01nJCEstr1+rh4AkpKrJcboe6Yd2zeXE+PmrxGcI+z4Lve9Hw3SpFkpuVkw8QkYhAILi38DPD0YMuY8OOJsjLr1n8dp+/Zb43eIS8j48eP4tVX2fJj03FJSiseEfPfYefCQoxFAjuHVxC/3eDTY3FsKqI5A4CgeCR4KGIEAUCgeB+IQRRIBAIFIQgCgQCgYKFBVEkdxAIBHWXWpjcIUbenG0YGYYX/V3R/AqQuX4molZXdbNRAMI/GQ4nOn6qnRjCBjppankXqla6sjpbgGpjUgi1jCj3PQoEDzv3+UsVSyV3SIXNxAUI9zqGhTN47B0s2VKdnZcO0DdMlfsKq25iiCGzMOdlT+VBzaHVjh5mCo8lkkJUJ9HD7dpyXNZRZmU9zrEqaJ+LQGApRHKHOyZ3sEHo1Kdwcs5iJMqXm2E2+yL8M21ChgQ0eGEpPhg3FO6O9vCYMu1mcoc4I3r4q0XnAe+X52Kaby/4TZqEPmcT0Cw4GuFPucDg0QvGRn6InDUKhv7jEOzVCo5uHnB37opeLU8hYU/OHZJCJCCrw1A4Z8ZLz0UeSoaV6kaMGCEnb6CThUkedDqdbN/jO1T5pBCsOUyhocuFLhQme6goKYTanm4ZRpv0UDPZA50sgwYNqjQpBPthe24ip22QVkL2w0LuLAhPGyHHpG2Q1sMWLVrIQkmnDOczfPhwOcEFnwP75k+Kotofn4tAcLfUtuQOlhPEJno0zN+BU7tTcPZ/kpLlHkBxwe0EkY/McPeX1CtHWkr388egIf7watcM1k62yFqxCTcqAo/5AyY2/AazFqzEpr0uGPd8O6SXOMF24yuIvDIeofozSD99HuY2veByOQtNfL3h7zMU/t7tsP2rBBTpHdDAtgc66Vqjq8NRvBXxJbb8lgLvKb+H05mDOH1e+qX0bI1fV+TBySYOby0utfN18guCx5UUrIj5FinD/4AJVrfOobwg0mLH5A/0PPN1JJs2bZIFct++fbKIqLY9+pgpVnzMpBAUMV6zYsUKOYJTrXwsBUpRzMjIkI8lJyfLghgXFyd/ZEEhpKhRuChW7Iu/P47xyy+/yKK6ceNGOaEEM+1w3LS0NLktE0tkZWXJ93k9BZsifeDAAVlomeCCIk9xpMWQySbYRu1PIKgJVg2vo3dXExxaX4N9y2s4eNIKhk5mPCYJXWvbazAW1UPB5ZvLTQpi5/ZXYLpSDw0bAF31V2TRzCtoUMuy3VgsucO3OJrvCPdhNwu0o4k1cEtCBklsmeRBOlcmucMO6VhOorJkXof+70rzORiHmEOS6jaW+jEV4LKyAreyNiF7d5J0bRyWfhqDnaWHb1A2KUSjOyaFIHzRmXyBQkZ/s0plSSHYXk3kQI/y7ZJCMKpT4TG2u1NSiNzcXPz222/yMplRnTquCsWNfXAe7J/X0XvNsbUJLujtJuxf259AUBNqW3IHy0WIEtfP7EPRNSOyE3ZU6rd2HjQWfl7SP6ZRYzHW6xrWRc/Dpo7MfXgzH+L+rAYY9odZGPfkEDw1YjR6Z/2IXI/pCOzpAt9RBuT8NB9nnKRIk9HZ5npwn/A8vHSNoe9vgM3qYkinlCWzLdxHBKCHFBl6Pd4LjQ5HIdXhJUzxcobBuxfSt17DgOe9oGush7fBBnFbr2I0cy1e74HR07zQw2M8Btia0NzWjOQFm2ATXMkcNBEiIz4ulSlYTNlFAaJQMQJjJMZzvDHBw549e2Sh6927t/z5ItOMderUSb5PMeJylF96ZGZmytEjI0TmZqRw8jiFjYJF2D8fc5nM6yliXKLzd6QujXlfHZfX8zgFkPNh5EnRoygy+uTSmH1QGHkt+2YqMzWS5DFeyzkJBHcLkzs8+6QRbl1MOHa6IVKPNMLl4vqwaXIdmTlWKJBEkskd6kt/i+cvNrixZN59sJEcSe45ZA27FlIkKV1jiQhRWPceAA8qKcSDGlcguFvud3IHIYgCgeCRoCqCaLnFt0AgENRxhCAKBAKBghBEgUAgULCwIAovs0AgqLtYdNsNXF9Bj/GDYX02HpfOKeX0ykEv8+zfPQv/EU/Cy6UR8g4cRs6wcES/PFE6xo3ZZ5DXezrCPAuxabfqsbVB4KyFCGgZj8Rq7QUOQPiiVzBR6pebtM8kpHAPeBWhr9kaxUW3bi6vCPqaJzUouwWnMrg1h1tWuM2mtsDtNPzQmdtyBIKHkapsu7FghGg5L7Ougx6ugyYgpJli2+kYDO/eDnBqX/qw6kjX1NDXfAdrZZXhL+N2vmbuH6TLpapUx9esHbs8wtcseJAIL3MVCtU7Dx6KZtlX4dI9HWt25sNj2ni0P1uCZkX70DzwY0wd4IKegS9holM7DJjsiwvxicgZ+SEWP9sILUa+gal9DPAPDUS71PNwlDSjYl/zFjQL/vSOvuaeiq8ZHUMx/0YB/Cx0+aN2HkeQ3szzrn3NdLAwyQM3bnNTNL3I3NhNPzH3DjKipGOF93kNrX7cJF3e18zN1hQ4bgY/ceLEDV8zxZebv8v7kKvjazYajXLf5Z+Ltj8+F4GgOggv8x29zGdwokUfOCdtwpVBw3Hpl06Y8HQh/pZpD5/mUsRntw9h736FxLUNJDF0ROZFJ7hfjkfbkWNgXFMP/XyuYd+JXJxr2AOPtZIGeayKvuaXQuF0Jv0WX/Pbiq8Znf0Q6HkNKd9/iW8vTMBUH+08vHDFaAvdXfqaKXYUOFrxKKL0IjNpA10ry5cvR8+ePeXHbLty5UrZ10zxoWNF62vm3tFjx47Jj2kfpECyL6Ydo3CW9yFX1dfM6/z8/HDo0KEyz0X4mgU1RXiZtdy2UP0qLE1viQnvewA7lkGuuSd7kcuK7LZV2dANDYP7lV1YVmyN6/lZsq856b9R+PQHqcHZin3N16vpa0ZKFGapBfCfuXUeFcFfQFV8zbTlUeBo11O9yLT7qb5mtqX4MWrkZ3wUUt5UeJxvTBQtJmRgv2xf3tdc3odcVV8z++Dcyj8X4WsW1BRRqJ6F5qtYqD7r6324bpuN2FglYeu5WGzFcCx5Lwzhi4YDv8Uidfs65HX0hHHrMhhT4rCrvjemBQzGsKDxGO5aepmKGTq4DpiAiH561Du3HKnWo/A5+3o7FGfWZkH/4osYNmgUXhzVH8Zj2bByHYUZY2bKxe4NEzUF8NNunUemMoYWungoIBQ9RtwUN0Z7WihsjAoPHjyIkydP3ihQT0FiVDdmzBhZuBi5aeESlsLHaFOFQsblOJey9FGrfdFRxLG5LOeSmALHPjknrdOIoqdGrRRDtmOUy888KYLln4u2P44rEFQXUaheUAYKCgWRKb7uJ4zoGJUKX7OgNiO8zAKBQHAPqIogWnTJLBAIBHUZIYgCgUCgIARRIBAIFIQgCgQCgYKFBVEkdxAIBHUXywqi63S4PD0GHXpaKQduxX1yOEJ7Kw96hCF63nhgSjSipyjHZNwR+kao9N+7YGQ4wkcq96vUTygi3/NV7mvRyUXr7w5fvB8dKf33znD/Hvcb1ibUGivc18iffFxVaP8TexIFdRULCmJVkzvooW+p+BMPRCMsYnnp/TLooHfWQ3c3mRXYf3v1QqUf5VG1mDIHc4JgseQO5VGTM9BnzI3P5eGGajpDqgrtekwQURVu15bj0r/s5eUlz48byX19qyLtpdCCyGsFgprAJA4zJlyCe5eyVrt7ndzBcvsQHZ6D62R/2DcFrl0+g+Oxf8LZ47fa93zfXQzf315F5GYOG4roz4CwNHcs61uAjPQ82LnpsDVsPXr82RcJYZFIYLOJ7yDaxYjM1p5w2D4NW9p/hOEdpBejgwPOZJxD/T2v4M3/6DH1kzBcPtoIHuaZCPsbL/RF5GdSP2l2CNX2P3Mpmr//PtzPpiFX5w67omUIO+ItjVGojLECOcMmwBM52Pn9D8CoCdCdyIWdNIfYafPALdS+s5cgyJSOXOMxRKZ3R/QEHTLTAReDESvCE+E9T5m/1FaFFfMoMiwNSkcIxYZJGOgAofOEVrj169fLosJzv/76qyxGjLjoWab3mPdZK1m10dGvTE/xwIEDZacJvdP8Seg2oWtl27Zt8pjsi1Efr1H74e+QSRzoR2Z/HJduFO7XohOGPmgmjmBfp06dkv8uVHeMtn8+N4o8U5rRXkivNm2EtBUmJSXB09Pzxji0AwoEt8Pf+zL6dDNh1damSD1yc8VBQXzuqdK9hMtWN0fvbiUY2LsY2/Y2RsKuxvLxyri/+xCvXkR+QgzSYmOwL+EATCXK8SpSmDIPkYuj8M6O5hggraLL8PO/sCrDhMJcE+y6eGLVwjC8szobeXti8Kcl+9DIIwRNO45C54ItWGau2Mmj7d8nNBDu9dZhZlQ0Ir9IhZwB8OdlmjFyEbUtR/ZXL7Qaiu6mDGTlZyHrqgt8FctuG1trlJw/iJivVyFwmBMyv5iNqMWzMW+/A4YFSA3KhZYUIoohRYhQOJhRZvfu0hQ/TKzAXxgjRiZ1oPgMGzZMLkLPBA20yVHsmGyB/dDdQuGhoDJjDdszwUJ+fr4seEz2wLGYkIFuGLWv7777TrYIsi2Xt5zX8uXLZZFSxyUURXUpT1H74Ycf5AQTtANW1D/nQ/GkZZBLbGbZ4XwpxHTFaMcRCG5Hb0kImza+juwLFX8bYSyqL2fE6eVigkv7KziXa7lvLSwniHeT3EGD+VqpX9lOejMoKZdoJ+CtdzC4aB1it2ZBbmUzHpHPmPDN3HUwnlyGZFM3hD7XA+btcbheIIXOjdVcgzppAV8IlljX9m+qz/8oyikd4PtPwNsRZcdQqagQvsTyN8MRm+uBiPnhcGJ3d6hhTxFh5KYWfmc0qKJN2sCIi5EUhYaPKZr0CtPbTLFjO8Jz9BQzUUT5z+yYwYYRJJe/FFmi7UslJSVFFslJkybJiR3UccvD/ngdRZxjVdQ/vc3aDEkUQDWKZR1odZzqfAwgePSwaXJNWv4W4TFJ7Dq2NWNwn2L5WHkevkL1w5jq6xqatL2M+BxHvNTvSbh080VAtzzEfZYF/Wg/eEnh2FMjvKCrb4f2DvYw9DagtTET9qPGoY91Q7j6sY+TWJzeFa8NuISvPvkVZ47XQ+9Jr+MFKSoJeLYPru6MxrL6PmX7//NKFA17CZPcXDDAywVNTfuRau4DHyd1jBSsPNQBzw/xQ7M9m4F+mkL4ZzwwdboXuowMgIskMnYN/4cv15gQNC0QBhdfjOmWgxULzsB5hDNOxCdAzQbGjDVcClMUGZmdOXMG7du3v1F0nim4KEqMzFgwngXgmYCB0RfbUXAYCer1ennZynaqOFLIKHZctrIdRYu/F0abvE/RZJ9qX1zqMtrj74+RHTPr8MZ+Oa7BYJDFj3PlMY7L6/iY/mfOt3z/RDsfXsdIkWLPL2aYUoxj8Hpt5h+BQIv5Sr3S5e/uJugkRX9J0n0ui0Wh+mpg8+ICzGsRjVc/z6pYiPktNsIQ9jflcS1m5MiRcuR2v1/XBzWuQHA77ndyB8vFmg8Ij5BIfPR4DuK+rkQMibTEk/5fJ1i9evUDEaUHNa5AcDuYH/G/G2xqLIZVRWS7EQgEjwSPRIQoEAgElkIIokAgECgIQRQIBAIFIYgCgUCgYAFB7AjbMW+j0/OlN/tO9mgyKAydxk6DrUPlSR4sgWFGNOZOVB5UCRvoWtko96uHmvCgOlQ3MUJl3M3YAoGg+lhAEE/i0k9/Rm7DtihK+BjnrEPQreMRHF9zFE3cve9ZcgSS/lkYZv9HeVAVhszCnJc9qzUnbpamu4I+4PIV85gggVXpKqO6iREq427GFgjqArrG1njfpw8W+fXDVPfusovrdrD9J1Lb5wwu8mP7po0R7dcfz3Rxlh/XFIttu7ENWYwmG15FdrYrWgaFwkma34V1C3E6rax31ffdvyPU4RRSC/Qw2OYi+1gOmrs5YOvLO+H6oSsKzzjC034rph0ZgCV9C3BMm/BhUSjsclJxFC4wXIzB9PwQecP1D44xCG6SgVSjHp7WcQhJcMPnE2yQniFFkb2A5N/NRgxTgc0Px/C2hUjflASThwdMh3NReCQSS1crk5Ogi4QCRCcHaxY/8cQT8u52Ok34kw4RJjNgQXhmqaF3V02QcPz4cdnWxp+9e/eW3T7axAj0/rKGMe159P3yl0/3Bv29vF6bKIERIY/xMZM60HpXfmza/1hQntBh0rFjR9lhQhcMXSn0K7O9QFBb8enggMH6tliScgAz+/bCP/Yexsn8QumYI9JzL+KssWwWGwoi25GonXsxSGoX0NkJ606cxo9HVF9YxTyYbTeG0XAsWYm06GQ0GfosGimHb2JExg9zEBWRyHuYtzAKPxxthB5PxGHZ6qMw5efC1KoHPNkyZR7myAkZmpUmfDBnYNV7UYh+bwVynIfDW+6PmJC1+SNEz43FUZ0H3hjmiIwvZiN6wWysO600QSpi4jOQczgWc/5RjJaNSpB3IEYaUzmt0K9fP9lOxwLstKtR8Gmro9BRuChGjM4ogrSyUajUxAWEFjXa2dSlsjYxAovAsz0TIzAzDNtQGJkNpnyiBP7itm7dCg9JuCnSFY1N0aRQs38KKy11TPZA611sbKw8b4GgNpNdWASd9O/thR5d0KKRNRo1rI9hndpLQumIkZLQdbZtrrS8SYHJjHzp5tW2DXq00uF0YZnsAzXCYoJoOpmBostSsLn/G2QV9UensR2RH/c9bmsQuWa+mUjBPQIRg8xY910CspS8EOZrpXduJHy4RukjNrCS7t18GcyS8ih3JRpqki1YSeJ0K8vx5luxyO0bgag3yqaPpbhRqLhEpT9YRU1eoCZTcHV1lX25zFajJi6gkJVHmxhB9QDzxqiRfbFPtaA838GIOhZvFMPyiRzUsX/55Re5bUhIiCyOHIs/mQRCjWoFgtpMxsV8zEncjQ0nTyOvuASXzVex/1wecoyXkX5eihCLKs5zuPd8LoZLwnlF+vu/VFK2iH1NsJggFm2JxqWLvHcOxg0LcfzbhTh7qBqpnsxGWDt4IOjlILg0LT2k7zcf78yai4ieOVj/s3SgqQsmfBCO8EUBaJ4WJ8V8FZOyNhfus+cifPYCDLCnhI7H3EVhMBzLhpXrKMwIm4MFb/lCbwM5PZUWpsbi0pQ3Rl1MisCkDHysQoGi+B08eFBOfGBvby8LE4WOKbSY7oqJEwijuWeeeUaO6JgjkOI3duzYMuJJEWb/PMafzGzDSJD9cH4UTxXt2MycQ5Hl0pvHCaNIpu0aM2YM+vfvLx8TCGorTi2a4VVpCRz6WDcczcvHqQIjzhRelu8fl97YC6VI8PePdUUfh7LBxqELl3D12nWk5JzH9cpNu9Wm9lr3pkRjMWbi1b+pT1dJ9jqjbNLV26NH2GdhyJ4xS4oJLYe6rE1IqPpMCKM7LqH52SA/A1yzZk2ZNGAqQUFBctS5fft25chN7nZsgaAu0qRhA0yWBPG/h47j3OWaZcV+MJ8hWgpp+Sf9X4MJhUWFypL5Dox5B0s+m4sFSyPhsP0ri4ohYaR3N4LEN5Bx48bJmWXYR0ViSBgVctlbEXc7tkBQFym6chWfp6TXWAyrikjuIBAIHgnqdoQoEAgE9xkhiAKBQKAgBFEgEAgUhCAKBAKBggUE0fLJHQLnRCP8TrXOWSdlCuA+ORyhvZVjtOe9ESr9tzys/xyq3K8JOuhK905XG+4N5Lab6nA315SH16vlRGvC7RJMWGoMgeBBYwFBtHxyhxXvhyHq1i14FaLr4AR9S+WBJFgdOuqhu1cZJaZEYk6Qcr8KcMM1rYC083HfIavUaaGvmfWWK6Oia6oLr2c/5bnT2FrYlnsjyyeYUKlsDIHgTjzyyR28X/4Qo2zOAl0MyIuJRbPQUNgZM5D6TRbcX/dAycUMnDnrBNuiAtjVW46ZC1Ix6k+L4Rb3GzCxbPKHj+TEDksw7NBSLD/C3rth/B96YP0rCfD4ywToTuTCzsWI2Gk5CPoMCEtzx7K+BchQE0bMXA+nP0vtTmraLSudQ9puB3h3yUJGnhHrF8QgFQEI/3swPOvlYOfmVDj074ysE3kwbohCTIr81GSYmIGF5LmXkGU5fXx8ZPcIHSVGo1GOpjZs2CBv0KYTZefOnXICCcJrWNydAko/NZ0o7IPXbNq0Sd7QTYHl1oGsrCy5TCnb8T4TO9DlsnHjRnh6espuF7pjmOCBySE4Nvc9rl+/Xu6HY9P3TJGjO4dOF/qr+fvkeHTn7Nq1S04Uwbbsj3AMJozgPslBgwbJz4NJMPr27SvPQ5uUQtuG+yfd3NxkRw/HoMOH4/76669yv4JHk0c+uUNi7I9IPm9CTr4dnNykA0zY8FpkqajkpyJyRhRkfdmVhAKnUehbbzwGN0vHsu23Jn8oxRp2nfuj/xO8ucKOq/TRw2AwZSArPwtZV13gO6S0JSnUJIzweUdqJ41fpp0yhzQ7aXkoHU/4imJIVklRazZytknR634dmjUwImtTTBkxZERIMWSiBkIRoR+a/+j5zkex4xsNha579+5yfWIKg5qggWJCuyAFhaLIayg2Bw4ckIWFwsmEDxQaihctgzy/d+9eWQiZAIJOFh5nxh1ep0Z18fHx8h8Eozl1bCaBSE5OludH9wsTTVAY2Y7JIdi32pY+am2CicGDB8vPhyJObzVhH/yDU5NSMGuQ2obzYjYfCnuXLl1ujCt4tHnkkztMmx0M/cE4xBxSEifcSNggoU32IAnQitMtMTzMHabdy5A18tbkD6UYkbN9KZZ+wVsisvmG0sQappxkJO1IQtzfpQhuR2lLYr5WOgITRpgkMb2lnTKH1IXhmLfLDhPmL8D48mF8ShTCP0yG3XNRWMAsPAqMAhmVUfAoZvRBq1BQKHw8ziiL0R0Fh6KgJmigGGpRr+GNfbMdxYmJHnhfPc+cjcykQ0Eufx2jPUZojDQpdnysjk1xYvTIxBLsj/2yD0aSTA7B69S26nn2zT7Yjnki6dlWn6fahjcmpeA5bRv2R8HUjit4tHnkkzuYoYPrgAmI6KdXjlRO8uY8dPYwIunfkkQV3Zr8oVJ+Xo8s52C8OHQwRr0wCv01byD6fgtuJoyIltp1rLjd+NkfIbSHDo2K89A4bDEix0iieLoAur5zEfJOBD6a3B26BibkaZ4iIyj+w1eFkZERRaL8Z2/8goKiwaWjNkEDj3GJzWiKoskbl8hM0sClL0Xq6aeflgWQ51Q4FsWOkSGjUu112ow9RK/X3xibORspUtq+uIxVs+8MHz78Rtvy8BiFjteqy2n+1Cal4BK6fBtS0biCRxOR3OFBwm+mEYaZf5OiKOXQg4CCwfRd6enpypGqwaiMUR+XokwnVtmSMzg4WM7nyOVteaozdnXnebukFALB3SCSO9xLbkkY8WDYvHlztcWQ8PNJih2FMSVF8+FlOZjFu7i44j+e6oxd3XkyKqwsKYVAcDeI5A4CgUBwDxARokAgEFQDIYgCgUCgIARRIBAIFCwgiA/Wy3yDVjrolLs1hRuk1ap59xuOXZlnWCAQ3FssIIgP1susEvp+JILKb6C+S7hv0BIF5gn383FzclXh2LTBVUR1+xII6ipd7WzxpwF9MO1xg3KklHvtZW4gRSORyv0bcFsHN+TeCW66Vb+1aezuD6tja1CYeQ7FXQLRdWhnFKeuRH5O2VKY9DJP8+0Fv0mT0OesEcPf/wBBT7qj3VkXTF7wEp580oBeHhMx4okBCPK5gDWJOQj402KMvdwCA8PHoLfbOLzyTHOsy3XCUMQjfrfU6chw/NGnG5y8pWi1XSCmjzfA0KcXjIkpULcls6A799VxUzPrLXN/HZMW0A5Hny8dGCNGjJD9ttwAzc3OhAkQWGxebccN0HSFcPMyN0JzXyCvox2N204opBQ0boimy4Nt+Box+QHteNr2rKZHCxz7p/tj2LBhsv2NW1e4odvf31+eN214rOZXvi+KJzdx0xVCix374oZnbhAXCOoyjRs2QDNrKzS1aoid/7v598x9ib3btELrJo2RnHMe3u0d0N2uJTIuFuBgruwMqRTqGv9t3w7Lf4Z4373MEqujkJSTjcTXFyLNzqacB7kU2uL4tfvq1atlAaHwaYvDU4y4qfjHH3+8Ud+Y4knPrbYdRYceYW565rJa6+ml4PJFX758uSxKFLFTp07d6IcbqbXtVX8vN1FT3Hie7g6Ko9YTzesr6osCSVsdfc18bqr/WCCo65wuuCzb+CpCeJlv62UuS+rCWTc9yMoxFdVLy5+MvLgEpZAQRn6M6vgOwuiMIkMbHs+Xb0cxY6THdhRA1a+7Z8+eG0XrKVxM0kAh1Xp3te1Vfy8Fmn2pPmWOofVEc5N1RX2pnmX2qfqP7/QOKBA8DAgvcyVe5vEfRCOsB5BzSQePPwXjbY0H+azSRoXLTBaN54ZyRnD00nKJyp8UI0ZvXKZSrChsjBK5VNa2UyPBAQMGyFGn1tPLlFmM2ihuvM8+KVha725FHmDOhUKm+pS5lNZ6oplSrKK+VLT+Y0a+AsHDhPAy3wMYlTFxwrJly5QjdwejMQoTP1t0cHCQ02pVBGsv015nidfHkn0JBHWJ++1lfmQEkUtkLkHXrl2rHLk7mEWG0RhFkZ/jMXITCAS1HyGIAoFAoFAVQbT8t8wCgUBQRxGCKBAIBApCEAUCgUBBCKJAIBAoWEAQa5rcwUJF5B+S5A50qTyosQWCRx0LCKLlkzvcDbU1uUN1CsITlgmlba8iqtuXQFBXeWSSO/i++3d8MM4LLl39EBzSBzmri+E+Eoi39Uf0mN7oGfQKAnXW8J3qjwtrEpEz8kMsfrYRWox8A1P7GOAfGoh2qU6Y/JfSRBCN4hNxWJPc4dpBA6bMGwtDzz7oVZSIlGxlYAm6UFiLmNY32vQofH5+fjecKXSf0K1CFwjtdIR7F+k+UdvxdalqcgdGe6y7zIp5FDOOzXKgvF8+uQPv009NVwrvc9uT2i/nxt8J+2LtZF5P1w03m/O5qPfZF10sIrmDoK7zoJI7WF4Q9ZPg3GIj9n9bAIeJHjAmJUNr0XYeNAK2m8Ix79uNMHtNxMArOWjWSxLEz1fgqr0LbJo6wrVVItab+2GgcQ1sh4yAaaMV+vlcw74TuTjXsAcea3VCeqs4h/deicZ+dnokEfaDBiLrtfcR2+lJBHpeQ8r3X+Lb3WV3tjPyYtEkCgYtbjt37pTFhkkWuHGbwsLkDky4oGaqYdF1Fm1S21Gg9u3bJ1vreA2FiMka6Ctmn7Tjfffdd3JmHIoVE0XQ0UI7388//yyLntq+Y8eO8vI4Li5OFuODBw/KQsrxtf1yLmzHvijEu3btwu7du+Vi8BRhtuFcOXc+ZkU+gaAuwwQOLi1t0aKR1S2C2LO1DiVXr6Ehk7TY2+Eyg4DLxbUr201VkzvQzYwrpfdsrKTrlGwOAW9HYHDROsRuzZITPKxalY2WQ2ZgcItjiCu2ljPYsKB80n+j8OkPUoMyiSA0pERhVgVF5ImaDIE3fk7ISE/1/tKXrC3QriZ34GNtu6omd3B1db1R5J2OFrZlMXr2q7ZXkzvwTeV2/VKQ1b7uVFz+Tr9wgeBh4F4ld7BYhHjl5HaUyAHZZZiPJeHi3iQYL9yalsZ50Fj4eUtLZsMz8LFLxdf/BDylJXPqRWf4ONnD0NuA1sYUrPw2AS4Tp8Nu5xx8vy4HDv4TMFrfGLpeXtCfz4O9pE/x8SlwnxmN6Y7xONLqefgOaQ6jwyjM8GsBk40dzClx+FUKJlUYUVFYWKz9zJkzcsIGwsiQYsMi6/wMj4/5vLjkZZIGPk+1HUWLS1cep8DSusfojcJGkWUbiisjRR6jSFLAGMHxOK9nfzzHG7PYpKWlya4fRqAV9au2Z18DBw6U+1aX9FyCM7cjkz5w7o0aNZKjTIGgrtO9VUs5QnxMigiZ9el/xsulS2aH1vglKxt9pZ9bT2WjjU0TOaK0RIR43617vu8uhu9vryJy8y3DlsMD70QHYu/M2Vh1p6ZV5HYF3KsKX1RGcXdK7lDdIu+3w5J9CQR1ifud3MFiS+aqYiopQeEdI9wAhH0WgmY7/mUxMSS3K+BeVbh0fuGFF+TP//gZZGXcbTH6irBkXwJBXUIUqhcIBIJ7gEjuIBAIBNVACKJAIBAoCEEUCAQCBSGIAoFAoGABQaxucgcddKUF7O4NSpIHw4xozJ1YeuhusJH6sVHu1xTuJ+QexQcBx+Z+SoFAcGcsIIjVTO4wJRKRQfXuWdIHNclD+mdhmP0f5WC18cWsyJllaz/XAPqb6Zu2BHSo0MFSVWhX5IbtiqhuXwLB/eJBJXew2LYb25DFaLLhVWRnu6JlUCicpPldWLcQp9PKJhoI//t/4FnvLHZ+nwqn5zxQcjEDW36zxnCXQmS29oTD9mmI6xKN4CYZSDXq4Wkdh4gTgxHRJQsZeUasX1CAUYtcUXjGEZ72WzHtq+aIfL07cvYbUdioEJ59JRk7sxMrDjhhOMKwoGAuInzMSM+0g3u7VES9Bkz/xgPZqenQubki4/9+gN2bQTAdzkXhkUgsXQ24T16A8BGOKDyYgCSTBzxM6cg1HkPk56uUZ1FatIrOF7pPmHCBG74HDRok+5C3bdsmb95msgU6fugeYQF6/uQ+yPbt28sJJDZu3Cg7VVi4itsB2IavO0WMjhY6U+hxJmvWrJFdNhRWerFVT7W2PQvZ0zJILzOtfCxuTzi3Nm3ayD7ovXv3ys4YCmH5vti/Ole6eRhZrlu3Tn5+AsH9pH3zphisbysJYCP8dfcB5WipIM7s20u+H7VzLwbpHRHQ2QnrTpzGj0c0trQKeDDbbgyj4ViyEmnRyWgy9Fk0Ug6rRG3PQfa2mVgoCQ/yUxE5Iwqrfl6GVRkmFOaaYNeFcZkJWZvnIXpuLI7qPDDETlpu5mch4asYpCIOy1YfhSk/F6ZWPTA9xAN5MbMQtVgSs/lRSMzJRuLrC1EqXXoE+lhj84xIRC8Iw6oid4zqLR0uSMXiT6Ixa+t1GIa3kV7kEuQdiJH6lS9C6j/ikHE2A7Hvx6C4hRVKzh9EzNc3xZBQCPkCr169WrbRccN2YmKiXEyeVj0mcWASBgoZBYqiw2tSU1NlIaQQ0W7Hus9MIJGfny/b+yhu7Icwqw2F9YcffpB/UuAoTuyLfXAsbfvu3bvLtZxPnDghi1tsbKwsyNxEzihx5cqV8rW0F5bvi2VOOT4tjBRLerKZLILzEgjuN6cLLuOyueIkJbTp5Us3r7Zt0KOVDqcLK8xqcFdYTBCrntxBg5KgoXxiB20CCJL5STjm7bLDhPkLMH5kBCIGmbHuuwRkXQYaWptRqEnxVRY7WEvieosxRhr3psv6v5j1Zixy+0Yg6g135dhNlr81C7G5HoiYHw73cut8+ov5jsOfjBi5BKVI0mvMFF4UPXonKZiMBDMzM+V0YkwWQQsg2zFBA33LFC4meGBherahdzMpKelGUgiKFPugyDLio1jS0qdtzww7zIjDzyspZBybESnH4o3RJsfiNRX1pSa/4Dzoh+b1HF8gqG08NMkd4DgAzw/xQ3NjHtoZShM0tPMOKpPYIQ0GOGfGI+GEM3z9ndG2z9N4wtaE5rZmJKeZ0aefM+y7PQ6DfRF+/v4SfGeMhqGTDzwcE3BKTfJwqZ3Uyz/x5VE/TJo+CC49g9CvyVYs/Xcj+PhzCZoC9PGHv2MX+D3pIr012KHBmXVo/eyH8MtZhUte4+DloseAsQFoJwmEXcP/Yd3GFKjxEpfGFCIKIUWQySIYYXGZSTFkVMiIjctjvp7Hjx+X2zNK5LKUosVsNxQfJpVgFMflLwWIgkUR5XV8jXkN+6XIUdAYVfI8xYtirLbnuGzHKJReay6fOT+mFaPvmgLH8dgfhVPbF69ldKku7ZlognPn7/dOywyB4F7wSCR3eFhgxObj44Nly5YpR+4O/pIobPzihSLKVGEVMXLkSHlZa4nX25J9CQT3kvud3EEI4l3CyIsR39q1a5UjdweXq3wd+Xr/8ssvIhoTCO4RQhAFAoFAoSqCKJwqAoFAoCAEUSAQCBSEIAoEAoGCEESBQCBQsIAgVje5w50JnBONcC/lQWVMiUb0FOU+UZI6WALuEWRSBIFA8GhhAUGsZnKHKrDi/TBEbVceVBE1qYMloMeX+wItAd0r9DRz83VN4DafZ555Rt5ELRA8qrS1t8WHM5/GCwGlqVec2trho9dG49lhj8uPa8p9T+7g/fKHGGVzFuhiQF5MLJqFhsLOmIHUb7Lg/nppsoczZ51gW1QAu3rLMXNBKkb9aTHc4n4DJmqSOhwZgI8QhrC/SZ2ODMfff+eJemd2IiHNAd43EkHQ+1wKBeV2yRiYHIEiSKcHi1ExQmRhJyY5oLtDbUe3yJNPPilb4ngNXSDsh44RWu08PT1lWxz9wXSZ0K9M7zDdJLTy0XdMl0j//v3leanz2bBhg+waURMwcJM2rz158qS8WZvlR7lbn9Er+2eChq5du8rOlgMHDqBv376yu4j9cKO3QPAwQkGc/Ew/+f6X323FgD4u8H7cBdvTjuP79Xvk45XxYLbd3CG5Q2Lsj0g+b0JOvh2cWPvdnIFVr0UiJkW6ryR74F3sSkKB0yj0rTceg5ulY9n2skkdyqTmWh2FJCWpQ5qdjSYRxE0oPHxBKkrGQJsakzGoCQ1UP7C7uzuSk5PLtGO0RwFiKVOKJh8fPnxYFkf6gek8Wb58uSx+TKDAdsxCc+TIEfknI0Va+iiy2vnQ36xNwECB49gUQ/bJGtL0Gqv9U5Ap0hR2iquaSKKmVQUFgtqOsbgExqISePbqCOd2rXAur0A5U3MsJohVTe4wbXYw9AfjEHNIKaZ+jbltFJRkD6WsworTLTE8zB2m3cuQVS6pQ2WkLpx1MxGEckylsmQMpHxCg5YtW8peY54v347ixyiM7ShQtPExGmS6LorqpEmTZDFlJEchVaEoMlqk55niqJ0P27IvNQHDli1b5Kw5HJuF8RmZUvzU/jl/Xqf6kNVEEiIZg+BR4GjmOfRz64Sr0t97odFyQYDFBLFoSzQuyd7qczBuWIjj3y7E2UNll8vEDB1cB0xARD+9cqRykjfnobOHEUn/lmSyyAhrBw8EvRwEl6ZKA4nxH0QjrAeQc0kHjz8F4+3ZHyG0hw6NivMgLczLQDHi53Bc6lNAmJOQkRd/UoQY7fn7+8viRuFhlMhlrLadGglSuBh18iMDtuc5Z2dnWewoSrzPPimcFFYeZ9IEihiv40cS2vkwwuOSmP1QGBlJsi0fM3JkcggKo9o/M+UQVQg576eeekqes0DwsHNEEkT+Ozh8ovy/8prxyFj3LJ2MgdlkmEEmPj5eOVOWyhIocGnMzDj83LAq86EY0jNd2TgCgaBqUNeEdU+Bn63xy5Kaws8eX3jhBTld186dO5Wjt8LPBsuLIb8Y4Ty4tK7qfLi0FmIoENwfRHIHgUDwSCAiRIFAIKgGQhAFAoFAQQiiQCAQKFigpkor2I6ZjnZ9B0D32ABYFR7Cdbc/QO/ZG9cvpKLEWHZfXGDkYgQUrUXiaeUAQhH5ni0Sfrl9CUHC4vHWRcUImBMt9RGPrOFz8fGUQej5RBBGOq7Bpn1Kw0qxga6VNYqLal6Uho4WfibBwk4CgaD2Q127U00VC0SI1fMyr4iciajtt3yPUwVuFo9Xvc7D+zRH8h8jMT+SRemr0OeQWZjzsqdFiuRzOwz3/VkC7jl8+umn5frM3JtYE1iSgFuCBIKHkXvtZbZY1b3G7v6wOrYGhZnnUNwlEF2HdkZx6krk55S1lfi+uxiTGuyHyyufYLK7M7ykJ2Z3JQ3xDcZiyaxRMPQfh2AvI+IMr+Ob0N5w6TIa0190QYGjF4a4O6HrY3ZoNXAyAvv0RK/uXaH3ccY1p4l4pe8a7Ov6IT4O7QPDiFAEtkuB+elF+GDcULg7nkHCHkeEvhwAd+eu6NmyFbynhMKrixfcWiUg+YgyOQn6mWnRo++Z0R/3GnLTs6Ojo7w5Wq25zOdOfzI3atM6x9eMAqm24x5D1kx2cnKS9y3S40zB4326TNiW4sfSpBQwbsCmd5lCS0sgayuzvepvVudDp8yIESNkex/H5nxp86PLhlErN29zjyOFkf1z/yXnrN7n5nNu+OaGboGgrtHcpjF6ubRFy+ZNkH48G15uzujYthVO51xE+rFK6xHL3KcIsRx38DLLtA6EO9YhbEE0Ir9IBZ2IgcMMMB/LQuGpLKCzrxQPAsa0xVi4eBYSrhvQUVM8PpN9pEYh8WwOEl+LkovSX0cHBA50RM7BQhQezIZjn+HSURMyVoYh8h90NaciJj4DOYdjMecfxWjZqGxxehU6UijyLB5PEaJjJS4uTrbWUUwMBoNcAD4jI0MWIB7bv3+/LILadhRGFpjnL4GCR5cKrXfcx6h6pOlT5tYlCisTQ1DUNm/ejDZt2sjixb2OvE47HwpgZd5peqTpjuEc1f75fCiQqneac2cxeoGgrvJQeZllbKylC5TP8eysIT2ClbUJ2buTkLQjDks/jQG3PJuuVSdrC4vS5yFrB/tYjqjoH6RjZQve32Q53nyr4uL0tAMxOuaNPmFGY8xmQ1sdxUctAM8EEKxjzHZ0nvj5+VXYjhuwKWqM+phWjKK3adOmGz5l1k7Ozs6WEzcQ9ktxo3BS3PhYOx9GphV5p9kPRZhip+1ffT6c06VLl+Q53eldUiCo7Tw0XmaZk3FIbRKE6FnhmPucixxFxq3Ngv7FFzFs0Ci8OKq/JsmDSgay67tg1IxAOClHypKGuD3W8P5DIAYPHY/xLD6v0jsM0XMCASmktnIdhRlhc7DgLV/obSBHWlroEeZneoy+eI6PGQkysww3oTN6GzNmjNyGHmUuYwMDA2Vx1LZj5Pfss8/K6cPoSOGSmDf6mLk05rKVkSEjOKYQowhSvCiaTPnFZTX7KT8fFpKnGLIvrXeaIknh4zVq/2yjwj659KZIUmwFgrqM8DLfJ4KCguSoa/v2amao1cBIjkJGUWJ/O3bskD8rLA8/q6QgJiQkKEdKobjxc8Hvv/9eTv5QlflQMBlpMoejQCC4FeFUuQsYhXG5WxP4OSIjsYkTJ8pe5IrEkOzbt+8WMWQEygiO2W/4DljV+fCzRyGGAkHNEBGiQCB4JBARokAgEFQDIYgCgUCgIARRIBAIFIQgCgQCgYIFBLGmhepDEf1ZqHK/BohC9QKBoIZYQBAtX6j+bqitherpKWZBKvqaawI3aotC9YJHnYcwucPf8cE4L7h09UNwSB/krC6G+0gg3tYf0WN6o2fQKwjUWcN3qj8urElEzsgPsfjZRmgx8g1M7WOAf2gg2qU6YfJfXsKTTxrQKD4Rh0eG448+3eDk3RHXDhowZd5YGHr2Qa+iRKRo/N5M0kCfL21ttNBR+Gi54/Pg5mcKF33IdHiowsMCT3SDqO34urBQFF0fPM5kDXdKtsCfdI/QXsfN2nS30ObHvllsXp0PN2lzjhS/goICOQEE50uXCefK/Yjt27eXN2EzguV1vJ5z4jHuX+TzELWZBQ8rD2FyByZceBdRi2djxXknDB+gHP55GVZlmFCYa4JdlxwkXXTCqCfqIcDLGulbumBI6xwcyC/EgRxHuDNvg1LUnokdtIXqV9npYNPAiKxNMaXF7zVQwJiEgYXmGbFxI/OGDRtkkWEkpyY/oIeYy2YmYWDlPG274cOHV7lQvZpsge0peEy4QOGkSNLCx9rP6nwokJwTi+ITzodiywQRhGJJJwqv37hxo7zZmzZB+pa9vLxkIWSR/ZpuKhcIajsPWXKHmwkXbKyk6xTTcsDbERhctA6xW7NkH/OqVdloOWQGBrc4hrhia0kAs5DExA3/jcKn1IgyRe01pERh1ofJsHsuCgvKVapnAgWKDG8UPEZ6qq+XAqUmP2AUpxaq52Ntu6oWqtcmW1ChZ5mWPmaxoRBq50MvNL3NjBqZIILZb9h/SEiInDqMQseUYMyYQ7FkdMh5MkIvX2RfIHjYuVfJHSy2ZL5ycjtK5HldhvlYEi7uTYLxwq3ZapwHjYWft7RkNjwDH7tUfP1PwFNaMqdedIaPkz0MvQ1obUzBym8T4DJxOux2zsH363Lg4D8Bo/WNoevlBf35PNhL+hQfnwL3mdGY7hiPI62eh++Q5jA6jMIMvxYw2djBnBKHXzWJuJk+iyLFhAvMUMOoizBXIIWLSRSYj5CP+by41GUCBT5PtR3FkBEej1PQGAEyUqQ4UWTZhuKqepkpkhQ4XkPhomBxfKbmYgSqzofj8xqKIpfr/B1wXPbFbDmMInkt8yPyPG/sLy0tTe6DvmhGsJy3+jsRCB42uGTu6doW2/eeRC/pZ+qh09C1aCpFjCaLLJnvu3WPCWJ9f3sVkZtvGbYcHngnOhB7Z87Gqjs1rSLBwcFyhMXl7t3CF5UR3Z0K1VeWbEH9soYe5qrMRxSqFwgsQ6207plKSlB4x5ImAQj7LATNdvzLYmJImIarpl84cOlclUL1FSVb4DKXUSQ/SyRVmY8oVC8Q3D9EcgeBQPBIIJI7CAQCQTUQgigQCAQKQhAFAoFAQQiiQCAQKFhAEKub3EEHXSvl7r1ASfJgmBGNuRNLD90NNlI/Nsr9msJ9ivx2WSAQ1G4sIIjVTO4wJRKRQfXuWdIHNclD+mdhmP0f5WC18cWsyJkotY/XHO49pBfZErBWC50qdMfUBG5Cp29aIKhL3OvkDhbbdmMbshhNNryK7GxXtAwKhZMzcGHdQpxOK1uKNPzv/4FnvbPY+X0qnJ7zQMnFDGz5zRrDXQqR2doTDtunIa5LNIKbZCDVqIendRwiTgxGRJcsZOQZsX5BAUYtckXhGUd42m/FtK+aI/L17sjZb0Rho0J49pVeqDM7seKAE4YjDAsK5iLCx4z0TDu4t0tF1GvA9G88kJ2aDp2bKzL+7wfYvRkE0+FcFB6JxNLVgPvkBQgf4YjCgwlIMnnAw5SOXOMxRH4uO6dlmICBzhc6SVgInhus6Uemv3jbtm3y5m36nOn4odOE5UP5k/sO6ShhAgl6klmQql+/fvJ2ALbh605PMx0xdLkw4QRZs2aN7EihjY8OG+64p11v9+7dcu3m/v37y+3U+dB7TVcLk1Ds3bsXV69elRNMMFEEXTJMHMF9kPwdcg60EnKjOduxwJU6d/bD5yIQ1AYoiJOf6Sff//K7rRjQxwXej7tge9pxfL9+j3y8Mqqy7cby2W70k+DcYiP2f1sAh4keMCYl46rcopREh4EYeOpVvB/bG/5Dz+G9V6Kx//gJXLV3gU1TR7i2Oo80GGC39W18/E8j3IK80dJkB/2VFKyI+RYpRSdw4lpruDRtBscu9nB27Qrz/5uJj79PQPJvibAfNBBZr72P2D7+8Mc+OHh6Y9+M2fgqMR4NBk+GV24ObHudw9z3/oq41iMQ7JILa2cHnNq8FN+uzafTGjl7zHAfbIu4NxehUUAgHDK3YOm38cjXbChnoghmovnpp5/kTdr0PlOcaOdjUgfeWH6U4sKEDBQzChfLiTIxAy1+FFWeo5jyNacwMXsNEzxQ9GjHo4f5559/htlslt0x3KhNix+tfqq4cmwuybk0V+fDuVGcV69eLQujupGcc6QI0nrI3x2fx3fffSf3Q0Fcu3at7N1W507hVYvoCwQPGlr3ujrbS/8erqJxIyu46u1RbDIjL/9y7cp2U/XkDhqUBA3lEztoE0CQzE/CMW+XHSbMX4DxIyMQMciMdd8lIEsKXBpam1FY6etgB2uYZJErgzTuzZjnv5j1Zixy+0Yg6g135dhNlr81C7G5HoiYHw73cut8NbkCf1LcuJzluxAFiwLGjDf8BdB3TLGjENKGR8HhL4ft6E+mH5pvQPQmV5bggUtk9nHo0CFldODIkSOysFLUKJTa+bAtx2CEyf63bNkiO2U4RyaeoK2Q4qgmo6AAU7B5jXbuIlmEoDZyr5I7WEwQi7ZE49JF3jsH44aFOP7tQpw9VHa5LHO6ALq+HyJ4iPJYorDYGo4eQZgZJEWJyjEt/SI+QmgPHRoV5+FskRHWDh4IejlIihKBbXHZMPyftMSdGYmwMVJ0d0kHjz8Fo9QxnIrY34Dhf5XOzYqWltBbEcuUYNqAx3EGFrzlC700MJep4z+IRliPDGTXd8GoGWGYMz8Cvs7SyUt5yC0XKFGMmLSVERcFhMtgCguXnRQTfkbHpSmFbv/+/fLS2MnJSX5MEaPwsN3TTz8tJ3rgY2bYUTPfdOrUSb5PcaSIUdi4fGUbRnhsT/HjMplLbe18GN3xOs6JIsfPDNmW/XKOzLzDhBOcB0WPcyKqEKpzF18GCWojRyRB5N/t4RNnlSOWQVj37hJGbD4+Pli2bJly5O6gWFHk+MULhZSf71XEyJEj5dyM5V9vRpvM3MPPDasyHy7DKYjlC+QLBA87wrp3D+Hnd/xSoqbwCxRmvaEwUvAqg58FlhfDgQMHyvPgly9Vnc++ffuEGAoElSAiRIFA8EhwzyNEIYYCgeBhQiyZBQKBQKFGS2aBQCC4n3B7G0tucO8t4ZeJNDTwi8U7UZUlc402ZlcFm/4hmB02DUGjfeHleBZ4ejYmNViDBE2tE4FAILgTquGBW8fqtemOPm4d4djgEho2d5T39HJb2u2grnFL2e24t0tmr3BEjW+KFXOmI2zGLCxYzgp0twSkAoFAcFsYGXJfbineeOl3Q+GoPCI8xzY15S4jRG+EvT0c+VtToGqyjds0zBoP/LrjZug6/KVg2K2dg9jDpY+5kZhV9wZ27wXnfs/jFX8brLAfoylQvw7mwKV4b4Ryfmg9/FhvLD5/ewRcDH6YNNUPjj8eQZd5H2uK1pvhP+91eHXxglurBCQfKR1LIBA8PNBYwMhQZsizeMr5GuzbOsLq3C6k55QeZpVMOq8q4x5GiImIWW2F388PhYF2tu6heP9FIO6r0uJJKvoWQO4tBeVMyNr8EaLnxiKjeQ/4lilQzwwWPD9PPn9U54E3hjni2BfvInrBbKzjc+0YWK5ofRvoGpcg70AMlq2WBxAIBA8Z6meGMpJqXTm7AfP/ZYbed7BysFybu+Sul8zGtKWI/JcVJn8SjejfW+Hfc5YitVzl+ORTgOsIg/JIpaxPufcdfMwNrSWJzC29byW9A8CufNH65WW8yPcqrZhAIKglbNyHiy39Mfm5tsCZfcpBy1CjL1XMOclI3L8Pv36/CSduyaAA5KTlocvzr+OlgCEYOswfA1zO4VjTx+GcyS9VnOE70hmXLtqhq6ZAPTPdOGfGl573d0by6iL4TRuGrm7+eMzJhJwl3+OMtmi9XS9MCHKRpN0ODc6sw8Y9+croAoHgYYF20xtLZhzDrsRt2LP9V2w7cFOn6PGv6ZK5Dm270SPsszBkz5iF5coRgUDwaMAvTJgA5XakpqbedvvNPXeq3BfGvIPPP5uLBUsj4bD9KyGGAsEjCIWOSYwrg+eqshfxToiN2QKBoM5wrzdmC0EUCASPBPd8ycxsNwKBQPCwUPs/QxQIBIL7hBBEgUAgULBogtgx73wB/46ardEXd+OLt5dCmwfaffL7CHVjpfoS5B7ZghVfr0Lq4HBED3OSz+emxSDyH6ny/RvYBCL8bTskvBeDsl4Yy8HC9i+eu7tazr7vRcLlg0jEKI+rRI8wLH4xG69GLBfuboHgPnDPP0OsFArhtJcwrZwYEl17O+SunImw1+ZhVW5/hH0YCn17SQwPhEnHwm4VQwn973xhaOeBwJHKgXtAzQrb3wUHojFTiKFAcFf0GucN58E9b7lfUywaIVYF33cXw/e3VxG5mcPaYNpfP4J5jxQ5QhLEv5W2KYseYdFhyP53HgYEpCHsvUJEfhkKO2MGUr9JgO4PE6A7kQs7FyM2bNdh6I2C9jG4Ka2hiP4MCJshxXBTorEYM7HC8W8IbnLsRjH84FPDEV1RYfvXgelfawvbh2HpSanLIRFYMsEG6RlSdNkLSP7deujVeWWa4N5ULbz/F+T4jEbGjNnIm70ME/IjMH1lIBZMbYtGzY9iZlgG3lgsPYesdMDFAOP34Zi3vpwHUiAQlIEiWHj2Ek5s2V/m/u247xEil8xLl3558/bnaeitnKsYI8xK2V+HftGIXhSNyMnu8BgzDdOmTkPIMD3gFYzupoM4ZEpDrsNghLBOqTkDq16TlqhOw2AwZSArPwtZV13gY2gm+5wTvtKKYWVokkzYeShlS/UI9LHG5hmRiF4QhlVF7hj1uHS4IBWLP4nGrK3X0WO43BCBwxyR8cXsm0knCOf1ujSvL7UJK5pgfaY13IdIz6t+NgrbDoduuANM25kKTWL0MOizluLdBdGY/VE6HJ8aVXpcIBDcd+7dlyqZqytcMpeh+zS4W2XK4pWz7eaSOfmnpVj6xVJ8sz4LvsM64EqOFfo/0QHZOXbweL4RIImo7EhsYg1TTrKc6CHu71FYNEdT0J7ny2BVruZz2SQSpVSlsH0pVuWTThBlXgFvvVMmYUVqshE2T46Hrvhf2Hm1M8KdpGM/SScYJEvPAcVKRwKBoEqYi81o2MhKvm/Jj50sKog/fTQV0/jZIW/zflSOlscGLmMXI/qvMYiZ4YjNn0bd5ouSAAxtfxY/RJUK5NK/74TV4wPQWDmLn9cjyzkYLw4djFEvjMJLr2oK2itNSlmH1Cs++GhWOOb2098mI04VCttLUjt3URiOrs2F++y5CJ+9AAPsyxrGbym8vzkBRhdH5G1IRVxmc/Rocghx0mG529g4ZHWLwPxZYZj7pgGZccKcKBDciZy0E2jTUw+vl0egmYMtzu7LVM7UjPv+GeL9QtfFHU7SClqmUIpCj+QpDwQCwaPIg/uWWSAQCOogD22EKBAIBFpEhCgQCATVQAiiQCAQKAhBFAgEAgUhiAKBQKBgAUHsCNsxb6PT86U3+072aDIoDJ3GToOtQ+nGSS2BkYsR7nX72nih70UqzpFqMOR9vD9FuS9h00pXbiP23WNnZ4dmzdQ9PAKB4GHFAoJ4Epd++jNyG7ZFUcLHOGcdgm4dj+D4mqNo4u59yyboFZEzEbXdknvLK8IXs6RxWOXZEvj6+qJnT8uYx0ePHo3OnTsrj+4MC+tUtX337t3lgt4CwcNKW3tbfDjzabwQUPqv26mtHT56bTSeHUaPbc2x2LYb25DFaLLhVWRnu6JlUCicnIEL6xbidNo5+bxKaXKHFcBzwbA6lgqj3hPWccGIcViASLccpObr4G5nxrIZCfD4ywToTpYmbvjxe2uMGpCId1a74aOADLzz3goYJeGLWDoBNsyw0NUd2BOC2X+7DvfJ8xE+oi0KDyYgyeQBD1M6co3HEPn5KmUWpbUZPDw80LhxY7kuw2+//YZBgwZBp9Nh27ZtuHz5MgYPHiyXY23UqJFct4E/i4uL0b59e1hZWWHjxo1o0aIF+vXrJ3+dzzZ83by9vZGbm4s9e/ZgwIAB8nhr1qyB9FrLwrpz584bfe/evRtPPPEErK2tkZiYKItf8+bNYWNjgwMHDmDgwIFy6US+zg0bNsS5c+fkMcvP8+rVq3KdCc4xOTlZnqM6LtsIBA8DFMTJz/ST73/53VYM6OMC78ddsD3tOL5fv0c+XhlV2XZTo7rM/IerDtDY3V8SuDUo1E+Cc4uN2P9tARwmesCYlIyrcotSnAf5wznroBTO2GFrxMf4Z5E7gvq1goNrB6TOnIOvEo7AeWAf5DTrAj+nM0g/fR7mNr3gvO89bOzwMmb71Ef8+39FGg3HY6ZgXP2vMeuTFdhk1RdP2mzCpt1Azh4z3AfbIu7NRWj0dBAcMrdg6bfxyNeYlO3t7WEwGPDTTz+hY8eOsphQnK5fvy5HWrzt2LEDu3btQpcuXWQxKykpwfbt25GZmQlbW1tZVHmOYsrXjELVtWtXWdhYR7ZXr17Iz8/Hzz//DLPZjD59+si1YymAat9+fn44dOgQTpw4IQurKtDnz5+X33D4ezh69Kj8y6TIcqyzZ8/eMk/eKJJsQ7G+du3ajXEFgoeF5jaN0dXZXvq7vorGjazgqrdHscmMvPzLSD+WrbSqmKrUZbbYlyqmkxkouiwFm/u/QVZRf3Qa2xH5cd+jRDl/C2qCBhkbTVIFOylakn6US9wQs0M6ds2KORpuok2MIN23lhbo5Zfoy98MR2yuByLmh6N8VdcrV67Igs6fFDcuZyk8jMQoJIzG+ALWr19fFjsK4WOPPYaAgAD5xWU7Cg/Fi8LVoEEDuZg229SrVw9JSUny+ZCQEDnyYx8spK3tm31QNAsKCuQ5sQ/2RcFj1KjCfnjcxcWl0nmq/PrrrzfGpfALBA8bRzPPoZ9bJ1yV/s4LjcXK0ZpjsQjxysntKJHndRnmY0m4uDcJxgu3LtVuRIgGZ5yIT8CJTr7wd0rFtxmP46XgnnAZ4A2XZmbs/3wLbMc/Dy9dY+j7G6AzDcGQ9nF4Kd4JMyf5YmCAG04v3QGXkFcwrHsv+D/WCeacFWgVuBh+OXG45DUOXi56DBgbgHaSyNg1/B/WbUxBvjIPRlMULgohxYVlDCkeFCGKDJegjL649OTrwbqvbM8IjstSfsnCaI8Cxs/tGGVyuUwhoihSRHkdXyNew34pfPv27ZOjSLVvChmvZ2lFXs/oThVHCijHYDuOw8iRQtuhQ4cK58mlMZ8Po1POj+Ny3ndaJggEdQVGiD1d22L73pPoJf1MPXQauhZNYSwyWSRCfGSte4zYfHx8sGzZMuXI3cEXmULEL14oTozOKmLkyJFISUkRVkeB4AFBXbtTcPDI7kPklyP8LK6m8AuU4OBgWRgpeJWxevVqIYYCQS1HJHcQCASPBCJCFAgEgmogBFEgEAgUhCAKBAKBgsUE0W1cS0RMLu3ObbIOEePqW8xLLBAIBPcDCwmiFZ4Z0xQF60trimasv4IOz9hW6CWui8kdagr3BDJBhEAgqN1YcMl8DUalPrHx1LVbS3kq1MXkDjWF/mXuU7QEQ4cOlS2AVYWbtqua8IH2RW4jEghqK3UiuYNDiAM+7X8ZH71cgDS5t/qYsaQTDAdO4uXPyhY/rg3JHXzf/TtCHU4htUAPg20uso/loLmbA7a+vBOuH7qi8IwjPO23YtqRAVjStwDH0vNg56bD1pmzsVzzrb2/v79sn6MzZdOmTejUqZMsQMeOHZNte9z47ezsLDtU6DRJT0+XPdH86l/bjiJH5wydKEz88Pjjj8PBwUH2Tbdp00b2S9PhQtfJkCFDsG7dOlkU2Tf3PrINnSpHjhzBpUuXZHsfXS5MNsFrOT8mmqATh04ajkNnTfl5cmM5nS779++XHTHsgwksaA0UCGoD9zq5g0UixJxvcpHe3AYeymOgCVxb5GJ5OTEsgzkLW/4cjXnfZcCu77MIlIKeta9FIfr9pZJQSefHDIPBnIGs/CxkXXVB/ysLsOpKAJaG6LD5zxTD0jaOGUsxe3EUZq87ietKAeXUf6xGxtkMxL4fg2Jba5ScP4iYr29mupFiWGT8MAdREYkovJ6BeQuj8MPRRujxRByWrT4KU34uTK16yBGmMWUe5kj9v7OjGXzGlV3qU2AoUsxKw8iKgrdhwwZZnChy/AXExsbKXmcum5nKiwJWvh3FMi4uTo7QmIGH1kAmcfD09JQFjaLE6yii7Iv9qH1TSNn+3//+tyxqFEPaBTdv3izbAbn5nELJNy62pXAziUVF82SyiZycHPkabjRfvny5EENBrcNYXAJjUQk8e3WEc7tWOJdXanW1BBZcMteHdSvlbqt6ZXIwVEgtSO4gc81cKq7EPQIRg8xY910CshQbtvla6R07aShTOXs3EzDQtscbBY9JH9zc3ORz9BEzWqN3kskjKHb0JfOxth09yXzX4o3eZF7Hzxu5zGYyCQojRYuRIaNLZr6hWKl9qynJGPnxJ/tjVh6OSaGlp1qFx9iusnlyfELxZRKKSZMmVSt3o0Bwv7hXyR0sJIhmrF9XBLunS7vT976O5H9fQoL8qCpkIi6tOYIWhSP8gxfh0kg69PN6ZHUMxotDB2PUC6Mw2HsWAhCL4P9nxvDZkfjzojAYpDa5j0Vi7qwILPBpKwvquA8WI6xHBrLru2DUjDDMmR8BX2cb4FIe7GdGI3KM1Kiy73TMRlg7eCDo5SC4NC09pO83H+/MmouInjlYv6rspwtMxMCUXf3795eTQ1BcKIyM0PhYzUzDZSgFhucobtp22dnZcruxY8fKSRl4HfvljSLKFGIUK4ohE24w0jt58uSNvil46n32Wz6iY6IIRrJq1hv2W9k8uUznUpkfBajLawquQFDbOCIJIv8+D5+ouf1Wi7Du3Y4p0ViMmXj1b+pivCz0MDOC42dxdwsjOkZu/LzuqaeekhO6MmIrDyNEiieX2wKBoPrct88QH1qkpaf0/0rhZ21cptYEvqmMGzdOzobDL04qEkPCzwSFGAoE9xYRIQoEgkcCESEKBAJBNRCCKBAIBApCEAUCgUDBgoJojTfet4GbTUNM+5MjFi/SYXxH5ZQGi3qZe4Qhet545UHN4DYU4TcWCB5tLCiIVtB3sYbHzPYY3rwQy74vQNpJ5ZQGi3qZD0QjLGK58qBmCL+xQFD7uddeZotV3WOEOCKoAZK+yEfrp9phTN/rOLe7CPvL7SKhl3lSg2L4RryHYT2d0e+5V+CHFcgYsACLfucOZ+9R8Gx9DWnxwNi/vIVRPb0xLqQfrpT4YebvrPFLUSAWTnPAL5sPwoxQRH/WB/scn8fH4w0w9OkFY2IKcpSxCDcZs/4y/cG0pVH4WAuZc+em5REjRsiuDW5+pueXUMxYGY/1k41Go+z4oLuDG5i5YZnOFF5HWx3rIFNI+/btK/fPfYXdunWTt8hQGNk3v4nn5m0Wredry7G5oZs2PQoc58a+1I3Yrq6u8v2K5smKe2zPutCcozou5yQQPOyw6l4vl7Zo2bwJ0o9nw8vNGR3btsLpnIsWqbpnGUG0qYfuQS0xqss1JP5ahPTki4CbHo9Zn8eacn5rixaqRx/4jwQOljjD40oKVsR8i5Ry01Y9xnRwUFCYPIGuEQoPhZJe5C1btsgJEriNiILHynm0zdGaR3Gife3gwYOy9Y6uEz4+fPiwfJ59MsHDd999J4snxYrWOQovkyuwb3qPbWxssGLFCjmRguoSSUhIkM9RVDk/JoGgW+THH3+U9yNWNE/+QulJZmF7zlkdVyB4FKgbheoHt8C0fsDeHy/hVDcbBIW0huOJ41jyD+V8RVjCy6yQujAc83bZYcL8BRhfr+znk7fzG9P2xuiKLxJtQIzKKHrcr6QWgyeMECla7IPt+MJSFClqzCKj+n4pnqrfmNeofTPyrKrfmMdprbvdPInwGwseZWp3ofojJViz1ohf068j/1AJ1q8txPrfruK80k6LRQvVrzXDU4oQm/d5AU/ZmtDc1ozk1b/ihDIW4bKUIsXML/Tt0i9MuOSkyHF5y6wvjPIoOBQrpsbiT94oqEyXxUiN2WT4mBln+AUMBY0iy74oYuyDxyiSHJPXsG9ezyiPy12KIy14jBgZhVJE2R/bU+w4Jr3KLIpf0TwZRbIf3ufYHJf9sQ+B4GFHFKq/HR3DsGBqFmZFrFAO3Iol/MZ8IRkd8rNFLmnj4+OVM2URfmOBoPbyUDtVPKZGIvpNA3LWVy6GxBJ+Yy5dX3jhBTly5GeQlSH8xgJB3UZ4mQUCwSPBQx0hCgQCgaURgigQCAQKQhAFAoFAQQiiQCAQKFhQEOt2coeawv2DdI4IBIK6iwUFsW4nd6gp3CzNmiiWgIke6MGuKtVJ+MA9lfRRc8O3QFDXqBOF6kuxwaf/ssaPH5ZgVER7uCAX/3nvApaXE0XLFqpncgdgwe7uiOiShYw8I9YviEEqB5oSjRX9CvDbweZw7wJkZmUCzi7I+3IzrCfeLEY//a3mmPeNBwqOpSOvhTt028Mw+z83vcFM3EBHCItAbdu2TY4EWS+ZVjrWNqYXmY4UWv7oMeZeRPqY6YpRE0qwrjITNVRWjJ7uld69e8sOFfqoKaz0QbPiHftmXWXCBBB8vbnXkUkd6FLhPkv+ZDtaBgkdL6dOnZLnUX6e3KlP1w43qnOO7JO1XGgFFAhqO3WiUL2c3GGCDRyuASUw4YdFx/Gb0R4+TyrnK8ISheoV7OyaAVK7hK8UMVTI2jYbUQt+QIY5F1s+iMLsbWY4uZUtRi8X189Pxbz3oxH17k4095ooX6tCqx9fxK1bt8o2QPqHWVSeAjl48GDZksci7xkZGbJY8tj+/fvlZAxqOxaQome5omL03PRNsUpOTpbFkG8yFEiWA1X7pr+ZESiL0TPCo5jyl0vHDJNNMBEEhS8tLe1GMXomn6honhxTbastgi8Q1BVqf6H6WpzcQUY7VidNMXpVVdVi9a2lga+WfXEZbdHXzRuTLDAN16BBg2TBojjRW8yoi6JFfzLbMfJiRKi2Yy1kiipv5YvRU5woYBQ5JpSgt5n2P0alat8UWjU5BC2EFFN6ppkWjELLmwqPcxzt+OXnSSii2iL4AkFdonYXql99Ca++dhbzfriGrJ8uYdZr2Zj1cQkOKqfvzF0Wqi+9GONnf4TQHjo0Ks7D2cdnIHpOoHKmArTF6G2UY47eWDA7HHPfMSB7bZxysBQmbOBnehQNJlngYwoUIzEuX/lFypgxY+Q2XDYzFVdgYKAsjmo7Jl6orBg9xZHLZQoZI0OeZ6oxLmnVvplEQ73PJBBcTmvhmBQ+RnwqFMGK5knBpbDSl60uodlOIKhLiEL1FVGF5A53pvRzyLAZMcrjsgQFBcnLZH7Wd7dQcCh4dypGT4GiIDJPokAgsCwPtXWvqskd7owZJUWli/WKYFTI5WZN4BtHVYrR85wQQ4HgwSGSOwgEgkeChzpCFAgEAksjBFEgEAgUhCAKBAKBghBEgUAgULCAIHaE7Zi30en50pt9J3s0GRSGTmOnwdbh1l3UFk3uIGHTSgd1O2FN4WZpbogWCASPJhYQxJO49NOfkduwLYoSPsY56xB063gEx9ccRRN3b5SXPosmd5Bkc5bUX6nNu+bQt0z3iCWg66Q65UFp36tq++7du8sbwQWCR406k9zBNmQxmmx4FdnZrmgZFAonZ+DCuoU4nXZOPq9iyeQOrpMXIHyEIwoPJiDJ5AEPUzpyjccQ+fkqZTTIXl96h+kIYWIFeoYpfHSJ0MdL5wm9vrTc0RKnJlWgVY6lPtV23FTNLDH82p5t+Powwwz3KbLs6IABA+TxuOmabhIKK5M4qH3v3r0bTzzxhLxJOzExUT7PvjnWrl275Ow2dI3w9eSc1PrQ5ed59epV2Q/N6/hcOEd1XNr6BIKHmXud3MEydZklGrv7SwK3BoX6SXBusRH7vy2Aw0QPGJOScVVuUcqNuszd7bA14mP8s8gdQf1awcG1A1JnzsFXCUfgPLAPcpp1gZ/TGaSfPg9zm15w3vceNnZ4GbN96iP+/b8izQzk7DHDfbAt4t5chEYBgXDI3IKl38YjX7PP2t7eXk5s8NNPP8lV8yhsdJ0w/RXFkpHZjh07ZFGi9Y1iRr8v27BustqO5+j95WvDPrp27SoLG50ldJhw8/bPP/8se5Vpi6OgUQDVvuktPnToEE6cOHEj/daBAwdkwWN/dLIwWw1/aRTZpKQkWXjLz5M32vHYhtfSvqSOKxA87LAuc1dne+nv/SoaN7KCq94exSYz8vIvW6Qus8W+VDGdzEDRZSnY3P8Nsor6o9PYjsiP+x6lqQQqwILJHcjyt2YhNtcDEfPD4V5una4mPOBPimJAQID84jDqopCcO3dOfqGYvIHiRCFkoXhtOwoPPcl8o2AyBfqO2YYeYooXz4eEhMjLXvZBu5+2b/ZB0WRCBsLrGNGpyR9U2A/HoABWNk8VZsdRx6XwCwSPCvcquYPFIsQrJ7ejRJ7XZZiPJeHi3iQYL9y6hLsRIRqccSI+ASc6+cLfKRXfZjyOl4J7wmWAN1yambH/8y2wHf88vHSNoe9vgM40BEPax+GleCfMnOSLgQFuOL1WitACxsHLRY8BYwPQThIqu4b/w7qNKVDNdoymKFyMshh9MXLjFye88T7Fhp/JcenJ5820XWzPJTaXpWo7iiA/t6OgcrlMIaIoUkR5HV8LXsMlMYWPNjxGkWrfFDJez1yEvJ7JHxgB8oscwgQNbMdxuLRXM+JUNE8KKZ8Po1OeZ1vO+07LAYGgrsMIsadrW2zfexK9pJ+ph05D16IpjEUmi0SID711jxGbj48Pli1bphy5O/hiUoj4+SM/x2N0VhH0KzO/oLA0CgS1i6p8hvjQ70PklyPMKl1T+AVKcHCwLIy3S6i6evVqIYYCQR1FJHcQCASPBCJCFAgEgmpQI0EU0aFAIHiYEBGiQCAQKAhBFAgEAhng/wO3BTDkX/Bd/wAAAABJRU5ErkJggg==;" parent="3" vertex="1">
                    <mxGeometry x="10" y="300" width="324" height="351" as="geometry"/>
                </mxCell>
                <mxCell id="20" value="&lt;span style=&quot;font-size: 20px;&quot;&gt;player / admin are able send out invite proposal's via df.setPlayerUnion ETH address into player.union value&lt;/span&gt;" style="rounded=1;whiteSpace=wrap;html=1;sketch=1;hachureGap=4;jiggle=2;curveFitting=1;fontFamily=Architects Daughter;fontSource=https%3A%2F%2Ffonts.googleapis.com%2Fcss%3Ffamily%3DArchitects%2BDaughter;fontSize=12;" parent="3" vertex="1">
                    <mxGeometry x="430" y="290" width="300" height="130" as="geometry"/>
                </mxCell>
                <mxCell id="21" value="" style="group" parent="3" vertex="1" connectable="0">
                    <mxGeometry x="830" y="280" width="560" height="695" as="geometry"/>
                </mxCell>
                <mxCell id="31" style="edgeStyle=none;sketch=1;hachureGap=4;jiggle=2;curveFitting=1;html=1;fontFamily=Architects Daughter;fontSource=https%3A%2F%2Ffonts.googleapis.com%2Fcss%3Ffamily%3DArchitects%2BDaughter;fontSize=12;" parent="21" source="6" target="11" edge="1">
                    <mxGeometry relative="1" as="geometry"/>
                </mxCell>
                <mxCell id="6" value="Send out df.move&amp;nbsp;" style="ellipse;whiteSpace=wrap;html=1;aspect=fixed;sketch=1;hachureGap=4;jiggle=2;curveFitting=1;fontFamily=Architects Daughter;fontSource=https%3A%2F%2Ffonts.googleapis.com%2Fcss%3Ffamily%3DArchitects%2BDaughter;fontSize=20;" parent="21" vertex="1">
                    <mxGeometry x="170" width="110" height="110" as="geometry"/>
                </mxCell>
                <mxCell id="32" style="edgeStyle=none;sketch=1;hachureGap=4;jiggle=2;curveFitting=1;html=1;fontFamily=Architects Daughter;fontSource=https%3A%2F%2Ffonts.googleapis.com%2Fcss%3Ffamily%3DArchitects%2BDaughter;fontSize=12;" parent="21" source="11" target="14" edge="1">
                    <mxGeometry relative="1" as="geometry"/>
                </mxCell>
                <mxCell id="11" value="registered new arrival.union for current player.union value with new df.move args." style="rounded=1;whiteSpace=wrap;html=1;sketch=1;hachureGap=4;jiggle=2;curveFitting=1;fontFamily=Architects Daughter;fontSource=https%3A%2F%2Ffonts.googleapis.com%2Fcss%3Ffamily%3DArchitects%2BDaughter;fontSize=20;" parent="21" vertex="1">
                    <mxGeometry x="90" y="145" width="280" height="80" as="geometry"/>
                </mxCell>
                <mxCell id="14" value="&lt;div&gt;&lt;span style=&quot;font-size: 12px;&quot;&gt;attack on arrival and lazy update hack:&lt;/span&gt;&lt;/div&gt;&lt;div&gt;&lt;span style=&quot;font-size: 12px;&quot;&gt;deciding whether the target planet.owner is part of the &lt;br&gt;union&amp;nbsp;contract values ​​from the members against&lt;br&gt;arrival.union&lt;/span&gt;&lt;/div&gt;" style="rhombus;whiteSpace=wrap;html=1;sketch=1;hachureGap=4;jiggle=2;curveFitting=1;fontFamily=Architects Daughter;fontSource=https%3A%2F%2Ffonts.googleapis.com%2Fcss%3Ffamily%3DArchitects%2BDaughter;fontSize=20;" parent="21" vertex="1">
                    <mxGeometry x="40" y="260" width="370" height="255" as="geometry"/>
                </mxCell>
                <mxCell id="15" value="Friendly fire result&amp;nbsp;" style="rounded=1;whiteSpace=wrap;html=1;sketch=1;hachureGap=4;jiggle=2;curveFitting=1;fontFamily=Architects Daughter;fontSource=https%3A%2F%2Ffonts.googleapis.com%2Fcss%3Ffamily%3DArchitects%2BDaughter;fontSize=12;" parent="21" vertex="1">
                    <mxGeometry y="635" width="120" height="60" as="geometry"/>
                </mxCell>
                <mxCell id="18" value="planet.owner is &lt;br&gt;part of arrival.uniion contract" style="edgeStyle=none;sketch=1;hachureGap=4;jiggle=2;curveFitting=1;html=1;entryX=0.456;entryY=-0.011;entryDx=0;entryDy=0;entryPerimeter=0;fontFamily=Architects Daughter;fontSource=https%3A%2F%2Ffonts.googleapis.com%2Fcss%3Ffamily%3DArchitects%2BDaughter;fontSize=12;" parent="21" source="14" target="15" edge="1">
                    <mxGeometry x="0.2053" y="-1" relative="1" as="geometry">
                        <mxPoint as="offset"/>
                    </mxGeometry>
                </mxCell>
                <mxCell id="16" value="Enemy fire result&amp;nbsp;" style="rounded=1;whiteSpace=wrap;html=1;sketch=1;hachureGap=4;jiggle=2;curveFitting=1;fontFamily=Architects Daughter;fontSource=https%3A%2F%2Ffonts.googleapis.com%2Fcss%3Ffamily%3DArchitects%2BDaughter;fontSize=12;" parent="21" vertex="1">
                    <mxGeometry x="310" y="625" width="120" height="60" as="geometry"/>
                </mxCell>
                <mxCell id="17" style="edgeStyle=none;sketch=1;hachureGap=4;jiggle=2;curveFitting=1;html=1;entryX=0.5;entryY=0;entryDx=0;entryDy=0;fontFamily=Architects Daughter;fontSource=https%3A%2F%2Ffonts.googleapis.com%2Fcss%3Ffamily%3DArchitects%2BDaughter;fontSize=12;" parent="21" source="14" target="16" edge="1">
                    <mxGeometry relative="1" as="geometry">
                        <Array as="points">
                            <mxPoint x="330" y="545"/>
                        </Array>
                    </mxGeometry>
                </mxCell>
                <mxCell id="19" value="planet.owner is NOT &lt;br&gt;part of arrival.uniion contract" style="edgeLabel;html=1;align=center;verticalAlign=middle;resizable=0;points=[];fontSize=12;fontFamily=Architects Daughter;" parent="17" vertex="1" connectable="0">
                    <mxGeometry x="0.1215" y="-2" relative="1" as="geometry">
                        <mxPoint x="3" y="13" as="offset"/>
                    </mxGeometry>
                </mxCell>
                <mxCell id="5" value="New contract struct union: target is for 4-8 members maybe dynamic value for darkforest.toml to set default maxMembers?&amp;nbsp;&lt;br&gt;&lt;br&gt;&lt;ul&gt;&lt;li&gt;&lt;span style=&quot;background-color: initial;&quot;&gt;for now df.setPlayerUnion only allows you to set one friendly multisig wallet!&lt;/span&gt;&lt;/li&gt;&lt;li&gt;&lt;span style=&quot;background-color: initial;&quot;&gt;The task #1 creating a union contract and using members of the &lt;br&gt;contract values ​​to control&amp;nbsp;&lt;/span&gt;if for the arrival the movement is with arrival.union and including check for the owner of the target planet. &lt;br&gt;If yes friendly fire, if not eneny fire.&lt;/li&gt;&lt;li&gt;Missing the UI pane and the entire Union flow to create new union , invite / kick a member, assigning an admin role, etc. BBL resource?&lt;/li&gt;&lt;li&gt;think about diplomatic agreements? or will a basic contract about union be enough to begin with?&lt;/li&gt;&lt;li&gt;union contract based on MUD ?&amp;nbsp;&lt;/li&gt;&lt;/ul&gt;" style="text;html=1;align=left;verticalAlign=middle;resizable=0;points=[];autosize=1;strokeColor=none;fillColor=none;fontSize=20;fontFamily=Architects Daughter;sketch=1;hachureGap=4;jiggle=2;curveFitting=1;fontSource=https%3A%2F%2Ffonts.googleapis.com%2Fcss%3Ffamily%3DArchitects%2BDaughter;" parent="21" vertex="1">
                    <mxGeometry x="-820" y="-265" width="1330" height="300" as="geometry"/>
                </mxCell>
                <mxCell id="43" value="game contract:&lt;br&gt;multisig wallets check.&amp;nbsp;" style="rounded=0;whiteSpace=wrap;html=1;sketch=1;hachureGap=4;jiggle=2;curveFitting=1;fontFamily=Architects Daughter;fontSource=https%3A%2F%2Ffonts.googleapis.com%2Fcss%3Ffamily%3DArchitects%2BDaughter;fontSize=12;dashed=1;" parent="21" vertex="1">
                    <mxGeometry x="150" y="600" width="120" height="60" as="geometry"/>
                </mxCell>
                <mxCell id="30" style="edgeStyle=none;sketch=1;hachureGap=4;jiggle=2;curveFitting=1;html=1;entryX=0.608;entryY=0.039;entryDx=0;entryDy=0;entryPerimeter=0;fontFamily=Architects Daughter;fontSource=https%3A%2F%2Ffonts.googleapis.com%2Fcss%3Ffamily%3DArchitects%2BDaughter;fontSize=12;" parent="3" source="25" target="27" edge="1">
                    <mxGeometry relative="1" as="geometry"/>
                </mxCell>
                <mxCell id="25" value="Admin union - Address contract to player.union only if admin is leader and new member both have consent flags via contract based on invite request" style="rounded=1;whiteSpace=wrap;html=1;sketch=1;hachureGap=4;jiggle=2;curveFitting=1;fontFamily=Architects Daughter;fontSource=https%3A%2F%2Ffonts.googleapis.com%2Fcss%3Ffamily%3DArchitects%2BDaughter;fontSize=12;" parent="3" vertex="1">
                    <mxGeometry x="420" y="770" width="340" height="70" as="geometry"/>
                </mxCell>
                <mxCell id="27" value="player can leave union on ask once per 12h leaving period 12h" style="rounded=1;whiteSpace=wrap;html=1;sketch=1;hachureGap=4;jiggle=2;curveFitting=1;fontFamily=Architects Daughter;fontSource=https%3A%2F%2Ffonts.googleapis.com%2Fcss%3Ffamily%3DArchitects%2BDaughter;fontSize=12;" parent="3" vertex="1">
                    <mxGeometry x="90" y="920" width="380" height="70" as="geometry"/>
                </mxCell>
                <mxCell id="28" value="admin can kick from union once per 12h leaving period 12h" style="rounded=1;whiteSpace=wrap;html=1;sketch=1;hachureGap=4;jiggle=2;curveFitting=1;fontFamily=Architects Daughter;fontSource=https%3A%2F%2Ffonts.googleapis.com%2Fcss%3Ffamily%3DArchitects%2BDaughter;fontSize=12;" parent="3" vertex="1">
                    <mxGeometry x="90" y="1010" width="380" height="70" as="geometry"/>
                </mxCell>
                <mxCell id="29" value="3 members can ask for admin union public vote. new admin according election results ?&amp;nbsp;" style="rounded=1;whiteSpace=wrap;html=1;sketch=1;hachureGap=4;jiggle=2;curveFitting=1;fontFamily=Architects Daughter;fontSource=https%3A%2F%2Ffonts.googleapis.com%2Fcss%3Ffamily%3DArchitects%2BDaughter;fontSize=12;" parent="3" vertex="1">
                    <mxGeometry x="80" y="1095" width="380" height="70" as="geometry"/>
                </mxCell>
                <mxCell id="44" value="admin can lvl up union if is full ocupied . max -3lvl each lvl + 1 member ?" style="rounded=1;whiteSpace=wrap;html=1;sketch=1;hachureGap=4;jiggle=2;curveFitting=1;fontFamily=Architects Daughter;fontSource=https%3A%2F%2Ffonts.googleapis.com%2Fcss%3Ffamily%3DArchitects%2BDaughter;fontSize=12;" parent="3" vertex="1">
                    <mxGeometry x="480" y="1010" width="160" height="70" as="geometry"/>
                </mxCell>
                <mxCell id="45" value="&lt;font style=&quot;font-size: 15px;&quot;&gt;create multisig safe wallet on redstone &lt;br&gt;static limited max size? dynamic per lvl?&amp;nbsp;&lt;/font&gt;" style="whiteSpace=wrap;html=1;fontFamily=Architects Daughter;sketch=1;hachureGap=4;jiggle=2;curveFitting=1;fontSource=https%3A%2F%2Ffonts.googleapis.com%2Fcss%3Ffamily%3DArchitects%2BDaughter;fontSize=20;" parent="3" vertex="1">
                    <mxGeometry x="480" y="440" width="180" height="100" as="geometry"/>
                </mxCell>
                <mxCell id="47" value="&lt;span style=&quot;font-size: 15px;&quot;&gt;add as multisig signer wallet&lt;/span&gt;" style="whiteSpace=wrap;html=1;fontFamily=Architects Daughter;sketch=1;hachureGap=4;jiggle=2;curveFitting=1;fontSource=https%3A%2F%2Ffonts.googleapis.com%2Fcss%3Ffamily%3DArchitects%2BDaughter;fontSize=20;dashed=1;dashPattern=12 12;" parent="3" vertex="1">
                    <mxGeometry x="430" y="690" width="120" height="50" as="geometry"/>
                </mxCell>
                <mxCell id="23" value="Not agree" style="edgeStyle=none;sketch=1;hachureGap=4;jiggle=2;curveFitting=1;html=1;entryX=1;entryY=0.5;entryDx=0;entryDy=0;fontFamily=Architects Daughter;fontSource=https%3A%2F%2Ffonts.googleapis.com%2Fcss%3Ffamily%3DArchitects%2BDaughter;fontSize=12;" parent="1" source="22" target="20" edge="1">
                    <mxGeometry relative="1" as="geometry">
                        <Array as="points">
                            <mxPoint x="850" y="620"/>
                        </Array>
                    </mxGeometry>
                </mxCell>
                <mxCell id="26" value="Agree" style="edgeStyle=none;sketch=1;hachureGap=4;jiggle=2;curveFitting=1;html=1;entryX=0.47;entryY=-0.014;entryDx=0;entryDy=0;entryPerimeter=0;fontFamily=Architects Daughter;fontSource=https%3A%2F%2Ffonts.googleapis.com%2Fcss%3Ffamily%3DArchitects%2BDaughter;fontSize=12;" parent="1" source="22" target="25" edge="1">
                    <mxGeometry relative="1" as="geometry"/>
                </mxCell>
                <mxCell id="22" value="Admin / Player agree on invation" style="rhombus;whiteSpace=wrap;html=1;sketch=1;hachureGap=4;jiggle=2;curveFitting=1;fontFamily=Architects Daughter;fontSource=https%3A%2F%2Ffonts.googleapis.com%2Fcss%3Ffamily%3DArchitects%2BDaughter;fontSize=12;" parent="1" vertex="1">
                    <mxGeometry x="480" y="670" width="290" height="110" as="geometry"/>
                </mxCell>
                <mxCell id="33" value="Union pane UI client draft" style="swimlane;whiteSpace=wrap;html=1;sketch=1;hachureGap=4;jiggle=2;curveFitting=1;fontFamily=Architects Daughter;fontSource=https%3A%2F%2Ffonts.googleapis.com%2Fcss%3Ffamily%3DArchitects%2BDaughter;fontSize=20;" parent="1" vertex="1">
                    <mxGeometry x="1580" y="100" width="1190" height="960" as="geometry"/>
                </mxCell>
                <mxCell id="34" value="Union multisig ETH wallet address or&amp;nbsp;if not part of union then &lt;br&gt;create / Join button&amp;nbsp;&amp;nbsp;+ text input for ETH address" style="rounded=0;whiteSpace=wrap;html=1;sketch=1;hachureGap=4;jiggle=2;curveFitting=1;fontFamily=Architects Daughter;fontSource=https%3A%2F%2Ffonts.googleapis.com%2Fcss%3Ffamily%3DArchitects%2BDaughter;fontSize=20;" parent="33" vertex="1">
                    <mxGeometry x="70" y="100" width="690" height="60" as="geometry"/>
                </mxCell>
                <mxCell id="35" value="&amp;nbsp;list / table from union members , admin recognized able , timestamp when member join , union create timestamp" style="rounded=0;whiteSpace=wrap;html=1;sketch=1;hachureGap=4;jiggle=2;curveFitting=1;fontFamily=Architects Daughter;fontSource=https%3A%2F%2Ffonts.googleapis.com%2Fcss%3Ffamily%3DArchitects%2BDaughter;fontSize=20;align=left;" parent="33" vertex="1">
                    <mxGeometry x="70" y="190" width="690" height="60" as="geometry"/>
                </mxCell>
                <mxCell id="36" value="&lt;div style=&quot;text-align: left;&quot;&gt;&lt;span style=&quot;background-color: initial;&quot;&gt;if admin -&amp;gt; able kick member with 12 h delay after activation possibility to send out admin role to other union member &lt;br&gt;can pay instant fee to union contract -&amp;gt; leave immediately&lt;/span&gt;&lt;/div&gt;" style="rounded=0;whiteSpace=wrap;html=1;sketch=1;hachureGap=4;jiggle=2;curveFitting=1;fontFamily=Architects Daughter;fontSource=https%3A%2F%2Ffonts.googleapis.com%2Fcss%3Ffamily%3DArchitects%2BDaughter;fontSize=20;" parent="33" vertex="1">
                    <mxGeometry x="70" y="260" width="690" height="90" as="geometry"/>
                </mxCell>
                <mxCell id="37" value="if member -&amp;gt; able to leave with 12 h delay after activation, &lt;br&gt;can pay instant feeto union contract -&amp;gt; leave immediately" style="rounded=0;whiteSpace=wrap;html=1;sketch=1;hachureGap=4;jiggle=2;curveFitting=1;fontFamily=Architects Daughter;fontSource=https%3A%2F%2Ffonts.googleapis.com%2Fcss%3Ffamily%3DArchitects%2BDaughter;fontSize=20;align=left;" parent="33" vertex="1">
                    <mxGeometry x="70" y="370" width="690" height="60" as="geometry"/>
                </mxCell>
                <mxCell id="38" value="restrict give planet and give artifact only for union members?&amp;nbsp;" style="rounded=0;whiteSpace=wrap;html=1;sketch=1;hachureGap=4;jiggle=2;curveFitting=1;fontFamily=Architects Daughter;fontSource=https%3A%2F%2Ffonts.googleapis.com%2Fcss%3Ffamily%3DArchitects%2BDaughter;fontSize=20;" parent="33" vertex="1">
                    <mxGeometry x="80" y="530" width="690" height="60" as="geometry"/>
                </mxCell>
                <mxCell id="39" value="payment for union creation default 3x players? &lt;br&gt;buy union lvl up? - more players limit&amp;nbsp;&lt;br&gt;buy a union flag per player?" style="ellipse;whiteSpace=wrap;html=1;sketch=1;hachureGap=4;jiggle=2;curveFitting=1;fontFamily=Architects Daughter;fontSource=https%3A%2F%2Ffonts.googleapis.com%2Fcss%3Ffamily%3DArchitects%2BDaughter;fontSize=20;" parent="33" vertex="1">
                    <mxGeometry x="800" y="60" width="390" height="240" as="geometry"/>
                </mxCell>
                <mxCell id="41" value="leaderboard all union , vissible able to join , members slot in/max, &lt;br&gt;scoring mode?&amp;nbsp;" style="rounded=0;whiteSpace=wrap;html=1;sketch=1;hachureGap=4;jiggle=2;curveFitting=1;fontFamily=Architects Daughter;fontSource=https%3A%2F%2Ffonts.googleapis.com%2Fcss%3Ffamily%3DArchitects%2BDaughter;fontSize=20;" parent="33" vertex="1">
                    <mxGeometry x="70" y="450" width="690" height="60" as="geometry"/>
                </mxCell>
                <mxCell id="48" value="pane design" style="swimlane;whiteSpace=wrap;html=1;sketch=1;hachureGap=4;jiggle=2;curveFitting=1;fontFamily=Architects Daughter;fontSource=https%3A%2F%2Ffonts.googleapis.com%2Fcss%3Ffamily%3DArchitects%2BDaughter;fontSize=15;startSize=60;" parent="1" vertex="1">
                    <mxGeometry x="1580" y="1180" width="1330" height="540" as="geometry"/>
                </mxCell>
                <mxCell id="49" value="multisig wallet component : if not part of any create union btn" style="rounded=1;whiteSpace=wrap;html=1;sketch=1;hachureGap=4;jiggle=2;curveFitting=1;fontFamily=Architects Daughter;fontSource=https%3A%2F%2Ffonts.googleapis.com%2Fcss%3Ffamily%3DArchitects%2BDaughter;fontSize=15;" parent="48" vertex="1">
                    <mxGeometry x="50" y="80" width="820" height="60" as="geometry"/>
                </mxCell>
                <mxCell id="50" value="" style="ellipse;whiteSpace=wrap;html=1;sketch=1;hachureGap=4;jiggle=2;curveFitting=1;fontFamily=Architects Daughter;fontSource=https%3A%2F%2Ffonts.googleapis.com%2Fcss%3Ffamily%3DArchitects%2BDaughter;fontSize=20;" parent="1" vertex="1">
                    <mxGeometry x="1180" y="1880" width="480" height="210" as="geometry"/>
                </mxCell>
            </root>
        </mxGraphModel>
    </diagram>
    <diagram id="5S8TGzHp6ORxHfjngcjZ" name="Page-2">
        <mxGraphModel dx="1732" dy="1535" grid="1" gridSize="10" guides="1" tooltips="1" connect="1" arrows="1" fold="1" page="1" pageScale="1" pageWidth="1100" pageHeight="850" math="0" shadow="0">
            <root>
                <mxCell id="0"/>
                <mxCell id="1" parent="0"/>
                <mxCell id="DouSe4tKiPYeIsLaNej5-1" value="Union pane UI client draft" style="swimlane;whiteSpace=wrap;html=1;sketch=1;hachureGap=4;jiggle=2;curveFitting=1;fontFamily=Architects Daughter;fontSource=https%3A%2F%2Ffonts.googleapis.com%2Fcss%3Ffamily%3DArchitects%2BDaughter;fontSize=20;" vertex="1" parent="1">
                    <mxGeometry x="1580" y="100" width="1190" height="960" as="geometry"/>
                </mxCell>
                <mxCell id="DouSe4tKiPYeIsLaNej5-2" value="Admin address is as main head for friendly / enemy fire" style="rounded=0;whiteSpace=wrap;html=1;sketch=1;hachureGap=4;jiggle=2;curveFitting=1;fontFamily=Architects Daughter;fontSource=https%3A%2F%2Ffonts.googleapis.com%2Fcss%3Ffamily%3DArchitects%2BDaughter;fontSize=20;" vertex="1" parent="DouSe4tKiPYeIsLaNej5-1">
                    <mxGeometry x="70" y="100" width="690" height="60" as="geometry"/>
                </mxCell>
                <mxCell id="DouSe4tKiPYeIsLaNej5-3" value="&amp;nbsp;list / table from union members , admin recognized able , timestamp when member join , union create timestamp" style="rounded=0;whiteSpace=wrap;html=1;sketch=1;hachureGap=4;jiggle=2;curveFitting=1;fontFamily=Architects Daughter;fontSource=https%3A%2F%2Ffonts.googleapis.com%2Fcss%3Ffamily%3DArchitects%2BDaughter;fontSize=20;align=left;" vertex="1" parent="DouSe4tKiPYeIsLaNej5-1">
                    <mxGeometry x="70" y="190" width="690" height="60" as="geometry"/>
                </mxCell>
                <mxCell id="DouSe4tKiPYeIsLaNej5-4" value="&lt;div style=&quot;text-align: left;&quot;&gt;&lt;span style=&quot;background-color: initial;&quot;&gt;if admin -&amp;gt; able kick member with 12 h delay after activation possibility to send out admin role to other union member &lt;br&gt;can pay instant fee to union contract -&amp;gt; leave immediately&lt;/span&gt;&lt;/div&gt;" style="rounded=0;whiteSpace=wrap;html=1;sketch=1;hachureGap=4;jiggle=2;curveFitting=1;fontFamily=Architects Daughter;fontSource=https%3A%2F%2Ffonts.googleapis.com%2Fcss%3Ffamily%3DArchitects%2BDaughter;fontSize=20;" vertex="1" parent="DouSe4tKiPYeIsLaNej5-1">
                    <mxGeometry x="70" y="260" width="690" height="90" as="geometry"/>
                </mxCell>
                <mxCell id="DouSe4tKiPYeIsLaNej5-5" value="if member -&amp;gt; able to leave with 12 h delay after activation, &lt;br&gt;can pay instant feeto union contract -&amp;gt; leave immediately" style="rounded=0;whiteSpace=wrap;html=1;sketch=1;hachureGap=4;jiggle=2;curveFitting=1;fontFamily=Architects Daughter;fontSource=https%3A%2F%2Ffonts.googleapis.com%2Fcss%3Ffamily%3DArchitects%2BDaughter;fontSize=20;align=left;" vertex="1" parent="DouSe4tKiPYeIsLaNej5-1">
                    <mxGeometry x="70" y="370" width="690" height="60" as="geometry"/>
                </mxCell>
                <mxCell id="DouSe4tKiPYeIsLaNej5-6" value="restrict give planet and give artifact only for union members?&amp;nbsp;" style="rounded=0;whiteSpace=wrap;html=1;sketch=1;hachureGap=4;jiggle=2;curveFitting=1;fontFamily=Architects Daughter;fontSource=https%3A%2F%2Ffonts.googleapis.com%2Fcss%3Ffamily%3DArchitects%2BDaughter;fontSize=20;" vertex="1" parent="DouSe4tKiPYeIsLaNej5-1">
                    <mxGeometry x="80" y="530" width="690" height="60" as="geometry"/>
                </mxCell>
                <mxCell id="DouSe4tKiPYeIsLaNej5-7" value="payment for union creation default 3x players? &lt;br&gt;buy union lvl up? - more players limit&amp;nbsp;&lt;br&gt;buy a union flag per player?" style="ellipse;whiteSpace=wrap;html=1;sketch=1;hachureGap=4;jiggle=2;curveFitting=1;fontFamily=Architects Daughter;fontSource=https%3A%2F%2Ffonts.googleapis.com%2Fcss%3Ffamily%3DArchitects%2BDaughter;fontSize=20;" vertex="1" parent="DouSe4tKiPYeIsLaNej5-1">
                    <mxGeometry x="800" y="60" width="390" height="240" as="geometry"/>
                </mxCell>
                <mxCell id="DouSe4tKiPYeIsLaNej5-8" value="leaderboard all union , vissible able to join , members slot in/max, &lt;br&gt;scoring mode?&amp;nbsp;" style="rounded=0;whiteSpace=wrap;html=1;sketch=1;hachureGap=4;jiggle=2;curveFitting=1;fontFamily=Architects Daughter;fontSource=https%3A%2F%2Ffonts.googleapis.com%2Fcss%3Ffamily%3DArchitects%2BDaughter;fontSize=20;" vertex="1" parent="DouSe4tKiPYeIsLaNej5-1">
                    <mxGeometry x="70" y="450" width="690" height="60" as="geometry"/>
                </mxCell>
            </root>
        </mxGraphModel>
    </diagram>
</mxfile>
